<svg xmlns="http://www.w3.org/2000/svg" width="20.112" height="20.107" viewBox="0 0 20.112 20.107">
  <defs>
    <style>
      .cls-1 {
        fill: #003e72;
      }
    </style>
  </defs>
  <path id="Path_56" data-name="Path 56" class="cls-1" d="M20.429,14.809l-1.214-1.822,1.772-3.545H19.813a.965.965,0,0,0-.649.246V8.619A1.3,1.3,0,0,0,20.475,6.38L19.165,5.6V1.982H16.57V4.05L11.825,1.22a1.528,1.528,0,0,0-1.539,0L1.635,6.38a1.3,1.3,0,0,0-.454,1.778,1.295,1.295,0,0,0,1.765.461v12.5H17.052a4.059,4.059,0,0,0,3.377-6.311Zm-.616-4.718h.124l-1.3,2.595H14.5l-1.3-2.595h.124c.2,0,.32.151.535.5a1.318,1.318,0,0,0,1.085.8,1.319,1.319,0,0,0,1.086-.8c.216-.345.332-.5.536-.5s.32.151.536.5a1.319,1.319,0,0,0,1.087.8,1.318,1.318,0,0,0,1.086-.8c.216-.345.332-.5.536-.5ZM17.218,2.63h1.3V5.211l-1.3-.774ZM1.739,7.827a.65.65,0,0,1,.228-.889l8.652-5.16a.867.867,0,0,1,.874,0l8.652,5.16a.65.65,0,0,1,.227.889.668.668,0,0,1-.888.228L11.824,3.491a1.5,1.5,0,0,0-1.538,0L2.628,8.054a.667.667,0,0,1-.889-.227Zm3.8,9.8a.973.973,0,1,0,0-1.44v-3.5h5.19v7.785H5.541Zm.324-.72a.324.324,0,1,1,.324.324.325.325,0,0,1-.324-.324Zm5.514,3.568V12.037H4.892v8.434h-1.3V8.233l7.024-4.185a.87.87,0,0,1,.874,0l7.024,4.185v2.313a.415.415,0,0,1-.325.194c-.2,0-.32-.151-.537-.5a1.318,1.318,0,0,0-1.086-.8,1.318,1.318,0,0,0-1.086.8c-.216.345-.332.5-.536.5s-.32-.151-.535-.5a1.318,1.318,0,0,0-1.085-.8H12.152l1.772,3.545L12.71,14.809a4.053,4.053,0,0,0,1.184,5.662Zm5.672,0h-.964a3.41,3.41,0,0,1-2.838-5.3l1.223-1.834h4.194l1.223,1.834a3.411,3.411,0,0,1-2.838,5.3Z" transform="translate(-0.999 -1.012)"/>
</svg>
