<svg xmlns="http://www.w3.org/2000/svg" width="19.333" height="30" viewBox="0 0 19.333 30">
  <g id="office-block" transform="translate(60.2 216)">
    <g id="Group_328" data-name="Group 328" transform="translate(-60.2 -216)">
      <path id="Path_217" data-name="Path 217" d="M37.133,8.036V.606A.629.629,0,0,0,36.479,0H18.454A.629.629,0,0,0,17.8.606V29.394a.629.629,0,0,0,.654.606H36.479l.351-.121h-.077c.363,0,.38-2.029.38-2.365V8.036Zm-1.308,0V28.793H19.108V1.213H35.825V8.036Zm1.308,18.7V8.636l-.3.158V8.636Z" transform="translate(-17.8)" fill="#22589a"/>
      <path id="Path_224" data-name="Path 224" d="M74.254,57.854a.629.629,0,0,0,.654-.606V55.906a.656.656,0,0,0-1.308,0v1.341A.629.629,0,0,0,74.254,57.854Z" transform="translate(-69.914 -51.913)" fill="#22589a"/>
      <path id="Path_225" data-name="Path 225" d="M128.054,57.854a.629.629,0,0,0,.654-.606V55.906a.656.656,0,0,0-1.308,0v1.341A.629.629,0,0,0,128.054,57.854Z" transform="translate(-120.161 -51.913)" fill="#22589a"/>
      <path id="Path_226" data-name="Path 226" d="M181.754,57.854a.629.629,0,0,0,.654-.606V55.906a.656.656,0,0,0-1.308,0v1.341A.633.633,0,0,0,181.754,57.854Z" transform="translate(-170.314 -51.913)" fill="#22589a"/>
      <path id="Path_227" data-name="Path 227" d="M235.554,57.854a.629.629,0,0,0,.654-.606V55.906a.656.656,0,0,0-1.308,0v1.341A.629.629,0,0,0,235.554,57.854Z" transform="translate(-220.561 -51.913)" fill="#22589a"/>
      <path id="Path_228" data-name="Path 228" d="M74.254,125.56a.629.629,0,0,0,.654-.606v-1.347a.656.656,0,0,0-1.308,0v1.347A.633.633,0,0,0,74.254,125.56Z" transform="translate(-69.914 -115.466)" fill="#22589a"/>
      <path id="Path_229" data-name="Path 229" d="M128.054,125.56a.629.629,0,0,0,.654-.606v-1.347a.656.656,0,0,0-1.308,0v1.347A.633.633,0,0,0,128.054,125.56Z" transform="translate(-120.161 -115.466)" fill="#22589a"/>
      <path id="Path_230" data-name="Path 230" d="M181.754,125.56a.629.629,0,0,0,.654-.606v-1.347a.656.656,0,0,0-1.308,0v1.347A.637.637,0,0,0,181.754,125.56Z" transform="translate(-170.314 -115.466)" fill="#22589a"/>
      <path id="Path_231" data-name="Path 231" d="M235.554,125.56a.629.629,0,0,0,.654-.606v-1.347a.656.656,0,0,0-1.308,0v1.347A.633.633,0,0,0,235.554,125.56Z" transform="translate(-220.561 -115.466)" fill="#22589a"/>
      <path id="Path_232" data-name="Path 232" d="M74.254,193.354a.629.629,0,0,0,.654-.606v-1.341a.656.656,0,0,0-1.308,0v1.341A.629.629,0,0,0,74.254,193.354Z" transform="translate(-69.914 -179.114)" fill="#22589a"/>
      <path id="Path_233" data-name="Path 233" d="M128.054,193.354a.629.629,0,0,0,.654-.606v-1.341a.656.656,0,0,0-1.308,0v1.341A.629.629,0,0,0,128.054,193.354Z" transform="translate(-120.161 -179.114)" fill="#22589a"/>
      <path id="Path_234" data-name="Path 234" d="M181.754,193.354a.629.629,0,0,0,.654-.606v-1.341a.656.656,0,0,0-1.308,0v1.341A.633.633,0,0,0,181.754,193.354Z" transform="translate(-170.314 -179.114)" fill="#22589a"/>
      <path id="Path_235" data-name="Path 235" d="M235.554,193.354a.629.629,0,0,0,.654-.606v-1.341a.656.656,0,0,0-1.308,0v1.341A.629.629,0,0,0,235.554,193.354Z" transform="translate(-220.561 -179.114)" fill="#22589a"/>
      <path id="Path_236" data-name="Path 236" d="M74.254,261.154a.629.629,0,0,0,.654-.606v-1.341a.656.656,0,0,0-1.308,0v1.341A.633.633,0,0,0,74.254,261.154Z" transform="translate(-69.914 -242.761)" fill="#22589a"/>
      <path id="Path_237" data-name="Path 237" d="M128.054,261.154a.629.629,0,0,0,.654-.606v-1.341a.656.656,0,0,0-1.308,0v1.341A.633.633,0,0,0,128.054,261.154Z" transform="translate(-120.161 -242.761)" fill="#22589a"/>
      <path id="Path_238" data-name="Path 238" d="M181.754,261.154a.629.629,0,0,0,.654-.606v-1.341a.656.656,0,0,0-1.308,0v1.341A.637.637,0,0,0,181.754,261.154Z" transform="translate(-170.314 -242.761)" fill="#22589a"/>
      <path id="Path_239" data-name="Path 239" d="M235.554,261.154a.629.629,0,0,0,.654-.606v-1.341a.656.656,0,0,0-1.308,0v1.341A.633.633,0,0,0,235.554,261.154Z" transform="translate(-220.561 -242.761)" fill="#22589a"/>
      <path id="Path_240" data-name="Path 240" d="M74.254,328.854a.629.629,0,0,0,.654-.606v-1.341a.656.656,0,0,0-1.308,0v1.341A.629.629,0,0,0,74.254,328.854Z" transform="translate(-69.914 -306.314)" fill="#22589a"/>
      <path id="Path_241" data-name="Path 241" d="M128.054,328.854a.629.629,0,0,0,.654-.606v-1.341a.656.656,0,0,0-1.308,0v1.341A.629.629,0,0,0,128.054,328.854Z" transform="translate(-120.161 -306.314)" fill="#22589a"/>
      <path id="Path_242" data-name="Path 242" d="M181.754,328.854a.629.629,0,0,0,.654-.606v-1.341a.656.656,0,0,0-1.308,0v1.341A.633.633,0,0,0,181.754,328.854Z" transform="translate(-170.314 -306.314)" fill="#22589a"/>
      <path id="Path_243" data-name="Path 243" d="M235.554,328.854a.629.629,0,0,0,.654-.606v-1.341a.656.656,0,0,0-1.308,0v1.341A.629.629,0,0,0,235.554,328.854Z" transform="translate(-220.561 -306.314)" fill="#22589a"/>
      <path id="Path_244" data-name="Path 244" d="M74.254,396.56a.629.629,0,0,0,.654-.606v-1.347a.656.656,0,0,0-1.308,0v1.347A.633.633,0,0,0,74.254,396.56Z" transform="translate(-69.914 -369.868)" fill="#22589a"/>
      <path id="Path_245" data-name="Path 245" d="M128.054,396.56a.629.629,0,0,0,.654-.606v-1.347a.656.656,0,0,0-1.308,0v1.347A.633.633,0,0,0,128.054,396.56Z" transform="translate(-120.161 -369.868)" fill="#22589a"/>
      <path id="Path_246" data-name="Path 246" d="M181.754,396.56a.629.629,0,0,0,.654-.606v-1.347a.656.656,0,0,0-1.308,0v1.347A.637.637,0,0,0,181.754,396.56Z" transform="translate(-170.314 -369.868)" fill="#22589a"/>
      <path id="Path_247" data-name="Path 247" d="M235.554,396.56a.629.629,0,0,0,.654-.606v-1.347a.656.656,0,0,0-1.308,0v1.347A.633.633,0,0,0,235.554,396.56Z" transform="translate(-220.561 -369.868)" fill="#22589a"/>
    </g>
  </g>
</svg>
