<?xml version="1.0" encoding="utf-8"?>
<!-- Generator: Adobe Illustrator 22.1.0, SVG Export Plug-In . SVG Version: 6.00 Build 0)  -->
<svg version="1.1" id="Layer_1" xmlns="http://www.w3.org/2000/svg" xmlns:xlink="http://www.w3.org/1999/xlink" x="0px" y="0px"
	 viewBox="0 0 512 512" style="enable-background:new 0 0 512 512;" xml:space="preserve">
<style type="text/css">
	.st0{fill:#22589A;}
</style>
<g transform="translate(0.000000,512.000000) scale(0.100000,-0.100000)">
	<path class="st0" d="M2092,5097c-21-22-22-33-22-170v-146l-211-3c-272-4-249,20-249-254v-204h-146h-146l-29-29l-29-29v-376v-376
		H882H503l-21-23l-22-23V1822V180h-80c-84,0-132-15-144-45c-14-38-6-91,17-113l23-22h2285h2286l21,23c22,23,29,76,16,112
		c-12,30-60,45-144,45h-80v2274c0,2224,0,2274-19,2297l-19,24l-847,3l-846,2l-30-29l-29-29v-201v-201h-80h-80v201v201l-29,29l-29,29
		h-201h-201v135c0,180-12,205-99,205C2125,5120,2107,5113,2092,5097z M2530,4460v-140h-370h-370v140v140h370h370V4460z M4480,2390
		V180h-310h-310v1170c0,1246,1,1216-45,1234c-64,24-135-15-135-74v-30h-85h-85v30c0,45-39,80-87,80c-54-1-93-38-93-89
		c0-20-5-21-140-21h-140v1060v1060h715h715V2390z M2870,3310v-830h-310h-310v140v140h145c142,0,147,1,170,25c17,16,25,35,25,59
		c0,84-26,96-205,96h-135v140v140h145c142,0,147,1,170,25c17,16,25,35,25,59c0,84-26,96-205,96c-129,0-135,1-135,20
		c0,29-26,76-45,84c-9,3-185,6-391,6h-374v315v315h715h715V3310z M2070,1755V180h-200h-200v204v204l-31,27l-32,26l-264-3l-265-3
		l-24-28c-24-28-24-31-24-228V180H835H640v1575v1575h715h715V1755z M3680,1240V180h-715h-715v1060v1060h715h715V1240z M1490,320V180
		h-25c-25,0-25,1-25,89s0,90-32,116c-26,22-39,26-67,21c-21-3-45-16-58-31c-20-23-23-37-23-111c0-83,0-84-25-84h-25v140v140h140h140
		V320z"/>
	<path class="st0" d="M3364,4297c-28-25-29-27-29-125c0-84,3-103,19-121c37-40,109-36,143,8c8,10,12,52,13,112c0,114-12,137-76,146
		C3401,4321,3389,4318,3364,4297z"/>
	<path class="st0" d="M3725,4308c-39-21-45-39-45-139c0-97,0-97,32-124c26-22,39-26,67-21c21,3,45,16,59,31c19,23,22,37,22,116
		c0,87-1,92-29,120C3800,4322,3761,4328,3725,4308z"/>
	<path class="st0" d="M4054,4297c-28-25-29-27-29-125c0-113,11-137,70-148c37-7,89,15,99,41c3,9,6,59,6,110c0,110-12,133-76,142
		C4091,4321,4079,4318,4054,4297z"/>
	<path class="st0" d="M3372,3733c-26-10-42-62-42-138c0-108,23-144,93-145c27,0,45,7,62,25c23,22,25,31,25,123c0,90-2,100-23,120
		C3465,3739,3406,3747,3372,3733z"/>
	<path class="st0" d="M3705,3715c-23-22-25-32-25-120s2-98,25-120c17-18,35-25,62-25c70,1,93,37,93,145c0,79-16,127-45,139
		C3778,3748,3729,3740,3705,3715z"/>
	<path class="st0" d="M4059,3727c-30-23-39-56-39-136c0-71,3-83,26-110c34-41,92-44,129-6c23,22,25,31,25,123c0,90-2,100-23,120
		C4151,3743,4086,3748,4059,3727z"/>
	<path class="st0" d="M3363,3146c-27-24-28-27-28-124c0-113,11-137,70-148c37-7,89,15,99,41c8,21,8,189,0,210c-8,20-56,45-88,45
		C3402,3170,3378,3159,3363,3146z"/>
	<path class="st0" d="M3725,3158c-11-6-25-19-32-27c-17-22-17-200,0-222c36-47,111-48,147-2c17,21,20,40,20,115c0,86-1,91-29,119
		C3800,3172,3761,3178,3725,3158z"/>
	<path class="st0" d="M4053,3146c-27-24-28-27-28-124c0-113,11-137,70-148c37-7,89,15,99,41c8,21,8,189,0,210c-8,20-56,45-88,45
		C4092,3170,4068,3159,4053,3146z"/>
	<path class="st0" d="M4059,2577c-29-22-39-55-39-132c0-107,23-144,91-145c22,0,47,8,63,21c25,20,26,24,26,124s-1,104-26,124
		C4144,2592,4084,2597,4059,2577z"/>
	<path class="st0" d="M4070,2007c-41-21-51-53-48-150c3-83,5-90,31-113c32-27,66-30,106-9c37,19,41,31,41,135s-4,116-41,135
		C4125,2023,4103,2024,4070,2007z"/>
	<path class="st0" d="M4046,1409c-23-27-26-39-26-110c0-83,15-131,45-143c38-14,91-6,113,17c20,21,22,34,22,121c0,90-2,99-25,121
		C4138,1453,4080,1450,4046,1409z"/>
	<path class="st0" d="M4070,857c-41-21-51-53-48-150c3-84,5-90,32-114c25-21,37-24,70-20c64,9,76,32,76,142s-3,121-41,140
		C4125,873,4103,874,4070,857z"/>
	<path class="st0" d="M1749,3831c-31-31-37-67-17-104c24-47,23-46,426-47h383l24,25c17,16,25,35,25,59c0,96,1,96-440,96h-372
		L1749,3831z"/>
	<path class="st0" d="M965,2929c-39-22-45-40-45-135c0-51,3-100,6-109c10-26,62-48,99-41c58,11,70,35,70,147c0,86-3,101-21,119
		C1050,2935,993,2945,965,2929z"/>
	<path class="st0" d="M1289,2911c-28-28-29-33-29-121s1-93,29-121c41-41,102-37,138,10c17,22,17,200,0,222
		C1391,2948,1330,2952,1289,2911z"/>
	<path class="st0" d="M1655,2928c-39-21-45-39-45-134c0-51,3-100,6-109c10-26,62-48,99-41c59,11,70,35,70,148c0,97-1,100-28,124
		C1727,2942,1688,2946,1655,2928z"/>
	<path class="st0" d="M946,2339c-25-20-26-24-26-124s1-104,26-124c16-13,41-21,63-21c69,1,91,37,91,149c0,71-3,83-26,110
		C1042,2367,987,2372,946,2339z"/>
	<path class="st0" d="M1302,2353c-26-10-42-62-42-138c0-79,16-127,45-139c37-14,86-6,110,19c23,22,25,32,25,120s-2,98-25,120
		C1392,2359,1338,2368,1302,2353z"/>
	<path class="st0" d="M1635,2335c-23-22-25-32-25-120s2-98,25-120c17-18,35-25,62-25c70,1,93,37,93,145s-23,144-93,145
		C1670,2360,1652,2353,1635,2335z"/>
	<path class="st0" d="M965,1779c-39-22-45-40-45-135c0-109,3-120,41-139c40-21,74-18,106,9c27,24,28,27,28,125c0,88-3,103-21,121
		C1050,1785,993,1795,965,1779z"/>
	<path class="st0" d="M1314,1780c-42-17-54-48-54-143c0-85,1-90,29-118c31-31,67-37,104-17c40,21,46,39,47,140c0,95,0,96-31,122
		C1378,1791,1351,1795,1314,1780z"/>
	<path class="st0" d="M1655,1779c-39-22-45-40-45-135c0-109,3-120,41-139c40-21,74-18,106,9c27,24,28,27,28,125c0,88-3,103-21,121
		C1740,1785,1683,1795,1655,1779z"/>
	<path class="st0" d="M945,1185c-23-22-25-31-25-123c0-90,2-100,23-120c23-22,76-29,112-16c30,12,45,60,45,143c0,71-3,83-26,110
		C1040,1220,982,1223,945,1185z"/>
	<path class="st0" d="M1292,1190c-29-28-35-55-30-151c3-70,6-83,27-100c34-28,96-25,126,6c23,22,25,32,25,120s-2,98-25,120
		C1384,1217,1324,1219,1292,1190z"/>
	<path class="st0" d="M1635,1185c-23-22-25-31-25-123c0-90,2-100,23-120c23-22,76-29,112-16c30,12,45,60,45,143c0,71-3,83-26,110
		C1730,1220,1672,1223,1635,1185z"/>
	<path class="st0" d="M2555,2105l-25-24v-840c0-462,3-847,6-856c8-21,56-45,89-45c16,0,38,12,56,29l29,29v832c0,856,0,857-39,887
		C2643,2139,2582,2133,2555,2105z"/>
	<path class="st0" d="M2909,2117c-39-30-39-31-39-887V398l30-30c27-27,36-30,73-25c83,11,77-59,77,894v844l-25,24
		C2998,2133,2937,2139,2909,2117z"/>
	<path class="st0" d="M3245,2105l-25-24v-840c0-462,3-847,6-856c8-21,56-45,89-45c16,0,38,12,56,29l29,29v832c0,856,0,857-39,887
		C3333,2139,3272,2133,3245,2105z"/>
</g>
</svg>
