<svg xmlns="http://www.w3.org/2000/svg" width="30" height="30" viewBox="0 0 30 30">
  <g id="cleaning" transform="translate(-71.5 0)">
    <path id="Path_266" data-name="Path 266" d="M100.76,28.878H96.05L82.177.346a.853.853,0,0,0-.935-.32c-.388.087-.6.372-.47.636l7.678,15.791H72.24c-.409,0-.74.225-.74.5v7.708a.465.465,0,0,0,.27.389.975.975,0,0,0,.47.115,1.074,1.074,0,0,0,.142-.009l.487-.065.753,4.461a.7.7,0,0,0,.735.446H86.533a.7.7,0,0,0,.735-.446l.553-3.273h.013c1.773-.243,2.844-.794,3.185-1.637.409-1.012-.345-2.371-2.239-4.04l.435-2.577,5.277,10.852H89.933c-.409,0-.74.225-.74.5s.331.5.74.5H100.76c.409,0,.74-.225.74-.5S101.169,28.878,100.76,28.878ZM72.98,24.053V17.46h6.3v5.755Zm12.893,4.94H75.018L74.327,24.9l5.838-.777c.347-.046.6-.253.6-.494V17.46H87.82l-.351,2.077c-1.141-.866-2.119-1.469-2.171-1.5a1,1,0,0,0-1.045.036.4.4,0,0,0,.053.711A25.508,25.508,0,0,1,87.239,20.9Zm3.718-4.617c-.156.385-.69.667-1.591.841l.525-3.113C89.339,22.976,89.823,23.8,89.591,24.376Z" transform="translate(0 0)" fill="#22598a"/>
    <path id="Path_267" data-name="Path 267" d="M94.151,202.329c1.077,0,1.954-.6,1.954-1.329s-.876-1.329-1.954-1.329-1.954.6-1.954,1.329S93.073,202.329,94.151,202.329Zm0-1.65c.261,0,.473.144.473.322s-.212.322-.473.322-.473-.144-.473-.322S93.89,200.679,94.151,200.679Z" transform="translate(-18.654 -186.271)" fill="#22598a"/>
    <path id="Path_268" data-name="Path 268" d="M150.273,164.161c1.432,0,2.6-.792,2.6-1.766s-1.165-1.766-2.6-1.766-2.6.792-2.6,1.766S148.841,164.161,150.273,164.161Zm0-2.526c.616,0,1.117.341,1.117.76s-.5.76-1.117.76-1.117-.341-1.117-.76S149.657,161.635,150.273,161.635Z" transform="translate(-68.658 -149.847)" fill="#22598a"/>
    <path id="Path_269" data-name="Path 269" d="M129.627,157.716a.824.824,0,0,0,.72.31.757.757,0,0,0,.672-.357c.2-.438-.54-.817-1.107-.57-.3.129-.422.395-.285.617Z" transform="translate(-52.34 -146.483)" fill="#22598a"/>
  </g>
</svg>
