<svg xmlns="http://www.w3.org/2000/svg" width="25.333" height="29.848" viewBox="0 0 25.333 29.848">
  <g id="chiang-kai-shek-memorial-hall" transform="translate(-20.644)">
    <path id="Path_253" data-name="Path 253" d="M45.24,18.936A.253.253,0,0,0,45,18.693H43.01V15.68c.737-.393,2.36-1.433,2.359-2.972a.266.266,0,0,0-.113-.221.232.232,0,0,0-.235-.015,4.991,4.991,0,0,1-2.056.451,4.144,4.144,0,0,1-3.254-1.554,23.475,23.475,0,0,0,2.626-.731c2.007-.7,3.025-1.5,3.024-2.362a.265.265,0,0,0-.127-.23.232.232,0,0,0-.248.009,4.511,4.511,0,0,1-2.345.648,5.28,5.28,0,0,1-3.275-1.229,47.945,47.945,0,0,1-5.821-5.4V.262a.244.244,0,1,0-.487,0v1.83a48.053,48.053,0,0,1-5.806,5.382A5.28,5.28,0,0,1,23.978,8.7a4.54,4.54,0,0,1-2.345-.648.232.232,0,0,0-.248-.01.266.266,0,0,0-.127.23c0,.878,1.018,1.65,3.113,2.363a24.6,24.6,0,0,0,2.563.7,4.151,4.151,0,0,1-3.28,1.584,5.042,5.042,0,0,1-2.056-.451.232.232,0,0,0-.234.015.266.266,0,0,0-.113.221c0,1.539,1.622,2.579,2.359,2.972v3.014H21.624a.252.252,0,0,0-.243.243l-.736,10.631a.276.276,0,0,0,.064.2.236.236,0,0,0,.178.084H45.733a.237.237,0,0,0,.178-.084.275.275,0,0,0,.064-.2ZM26.576,20.329v8.994H21.149l.623-8.994Zm4.483,3.885a2.257,2.257,0,1,1,4.5,0v5.109h-4.5Zm2.251-2.947a2.851,2.851,0,0,0-2.737,2.948v5.109h-3.51V18.955a.254.254,0,0,0-.243-.262H24.1V15.86h8.191v1.109a.253.253,0,0,0,.243.262h1.559a.253.253,0,0,0,.243-.262V15.86h8.191v2.833H39.8a.253.253,0,0,0-.243.262V29.324h-3.51V24.215A2.852,2.852,0,0,0,33.31,21.267Zm-5.805-9.839h11.61a4.735,4.735,0,0,0,3.851,2.018,5.575,5.575,0,0,0,1.866-.333c-.32,1.25-2.037,2.1-2.289,2.224h-8.21V14.227a.253.253,0,0,0-.243-.262H32.531a.253.253,0,0,0-.243.262v1.109h-8.21c-.253-.119-1.969-.971-2.289-2.224a5.573,5.573,0,0,0,1.866.333A4.735,4.735,0,0,0,27.505,11.427Zm6.341,3.062v2.218H32.774V14.489h1.072ZM39.388,10.9H27.415c-1.751-.332-4.5-1.137-5.391-2.068a5.076,5.076,0,0,0,1.955.391A5.733,5.733,0,0,0,27.539,7.9a50.093,50.093,0,0,0,5.771-5.33A50.081,50.081,0,0,0,39.081,7.9a5.734,5.734,0,0,0,3.561,1.329,5.077,5.077,0,0,0,1.973-.4,6.2,6.2,0,0,1-2.425,1.309A23.554,23.554,0,0,1,39.388,10.9Zm.656,8.9v-.589h4.727l.041.589Zm0,.524h4.8l.623,8.994H40.044ZM26.576,19.217v.589H21.809l.041-.589Z" transform="translate(0)" fill="#22589a"/>
  </g>
</svg>
