<svg xmlns="http://www.w3.org/2000/svg" width="30" height="30" viewBox="0 0 30 30">
  <defs>
    <style>
      .cls-1 {
        fill: #003e72;
      }
    </style>
  </defs>
  <g id="feedback" transform="translate(-1 -1)">
    <path id="Path_207" data-name="Path 207" class="cls-1" d="M46.323,1a5.323,5.323,0,1,0,5.323,5.323A5.329,5.329,0,0,0,46.323,1Zm0,9.677a4.355,4.355,0,1,1,4.355-4.355A4.36,4.36,0,0,1,46.323,10.677Z" transform="translate(-20.645)"/>
    <circle id="Ellipse_21" data-name="Ellipse 21" class="cls-1" cx="0.484" cy="0.484" r="0.484" transform="translate(23.742 3.903)"/>
    <circle id="Ellipse_22" data-name="Ellipse 22" class="cls-1" cx="0.484" cy="0.484" r="0.484" transform="translate(26.645 3.903)"/>
    <path id="Path_208" data-name="Path 208" class="cls-1" d="M50.7,13.69c-.185.237-.237.279-.345.279s-.16-.042-.345-.279a1.267,1.267,0,0,0-2.214,0c-.185.237-.236.278-.344.278s-.159-.042-.344-.279A1.357,1.357,0,0,0,46,13.04v.968c.107,0,.159.042.344.278a1.266,1.266,0,0,0,2.213,0c.185-.237.236-.278.344-.278s.16.042.345.279a1.269,1.269,0,0,0,2.216,0c.185-.237.237-.279.345-.279V13.04A1.359,1.359,0,0,0,50.7,13.69Z" transform="translate(-23.226 -6.214)"/>
    <path id="Path_209" data-name="Path 209" class="cls-1" d="M28.9,31.968A1.937,1.937,0,0,1,30.839,33.9h.968A2.9,2.9,0,0,0,26,33.9h.968A1.937,1.937,0,0,1,28.9,31.968Z" transform="translate(-12.903 -15.484)"/>
    <circle id="Ellipse_23" data-name="Ellipse 23" class="cls-1" cx="0.484" cy="0.484" r="0.484" transform="translate(14.065 13.581)"/>
    <circle id="Ellipse_24" data-name="Ellipse 24" class="cls-1" cx="0.484" cy="0.484" r="0.484" transform="translate(16.968 13.581)"/>
    <path id="Path_210" data-name="Path 210" class="cls-1" d="M11.645,6.323a5.323,5.323,0,1,0-5.323,5.323A5.329,5.329,0,0,0,11.645,6.323Zm-9.677,0a4.355,4.355,0,1,1,4.355,4.355A4.36,4.36,0,0,1,1.968,6.323Z"/>
    <circle id="Ellipse_25" data-name="Ellipse 25" class="cls-1" cx="0.484" cy="0.484" r="0.484" transform="translate(4.387 3.903)"/>
    <circle id="Ellipse_26" data-name="Ellipse 26" class="cls-1" cx="0.484" cy="0.484" r="0.484" transform="translate(7.29 3.903)"/>
    <path id="Path_211" data-name="Path 211" class="cls-1" d="M6,14h5.806v.968H6Z" transform="translate(-2.581 -6.71)"/>
    <path id="Path_212" data-name="Path 212" class="cls-1" d="M28.6,22.935A1.7,1.7,0,0,0,26.9,24.629v5.143a.485.485,0,0,1-.452.483l-2.972.2a5.323,5.323,0,1,0-6.4.225h-.166a5.311,5.311,0,0,0-4.428,2.37L9.268,37.87a1.6,1.6,0,0,0,1.33,2.485h.225a1.594,1.594,0,0,0,1.33-.712l3.137-4.706v6.386h9.677V33.984l2.541-.462A3.385,3.385,0,0,0,30.29,30.19V24.629A1.7,1.7,0,0,0,28.6,22.935Zm-8.468,9.813-.788-1.1h.788a5.322,5.322,0,0,0,.643-.043l.184-.012Zm-1.977-1.1L19.5,33.528l-1.006,1.006-.578-2.89Zm4.052-.138.17-.011-.608,3.039L20.76,33.528Zm-6.43-5.185a4.355,4.355,0,1,1,4.894,4.318l-.548.037a4.36,4.36,0,0,1-4.346-4.355ZM29.323,30.19a2.418,2.418,0,0,1-1.986,2.38L24,33.177v7.178H20.613v-.968h-.968v.968H16.258V33.581H15.031l-3.684,5.526a.63.63,0,0,1-.525.281H10.6a.63.63,0,0,1-.525-.98l3.215-4.823a4.345,4.345,0,0,1,3.623-1.939h.014L17.9,36.5l2.233-2.233L22.362,36.5l1.013-5.069,3.141-.209a1.456,1.456,0,0,0,1.355-1.448V24.629a.726.726,0,0,1,1.452,0Z" transform="translate(-4.129 -10.323)"/>
    <path id="Path_213" data-name="Path 213" class="cls-1" d="M31,51h.968v.968H31Z" transform="translate(-15.484 -25.806)"/>
    <path id="Path_214" data-name="Path 214" class="cls-1" d="M31,55h.968v.968H31Z" transform="translate(-15.484 -27.871)"/>
  </g>
</svg>
