<svg xmlns="http://www.w3.org/2000/svg" width="30" height="30" viewBox="0 0 30 30">
  <defs>
    <style>
      .cls-1 {
        fill: #003e72;
      }
    </style>
  </defs>
  <g id="discussion" transform="translate(0 0)">
    <path id="Path_294" data-name="Path 294" class="cls-1" d="M163.859,469.582h.877v2.4h-.877Zm0,0" transform="translate(-154.258 -441.987)"/>
    <path id="Path_295" data-name="Path 295" class="cls-1" d="M333.172,469.582h.877v2.4h-.877Zm0,0" transform="translate(-313.65 -441.987)"/>
    <path id="Path_296" data-name="Path 296" class="cls-1" d="M27.18,207.931H25.833v-.768a3.227,3.227,0,0,0,1.389-2.652v-1.672a3.216,3.216,0,1,0-6.433,0v1.672a3.227,3.227,0,0,0,1.389,2.652v.768H20.831a2.828,2.828,0,0,0-2.756,2.233h-.808v-1.223a4.108,4.108,0,0,0,1.827-3.417v-2.2a4.094,4.094,0,1,0-8.187,0v2.2a4.108,4.108,0,0,0,1.827,3.417v1.223h-.808a2.828,2.828,0,0,0-2.756-2.233H7.821v-.768A3.227,3.227,0,0,0,9.21,204.51v-1.672a3.216,3.216,0,1,0-6.433,0v1.672a3.227,3.227,0,0,0,1.389,2.652v.768H2.819A2.827,2.827,0,0,0,0,210.759v6.753H.877v-6.753a1.947,1.947,0,0,1,1.942-1.948H4.211a1.826,1.826,0,0,0,3.566,0H9.169a1.947,1.947,0,0,1,1.849,1.353h-.2a3.581,3.581,0,0,0-3.571,3.582v3.766h.877v-3.766a2.7,2.7,0,0,1,2.694-2.7h1.945a2.265,2.265,0,0,0,4.465,0h1.945a2.7,2.7,0,0,1,2.694,2.7v3.766h.877v-3.766a3.581,3.581,0,0,0-3.571-3.582h-.2a1.947,1.947,0,0,1,1.849-1.353h1.392a1.826,1.826,0,0,0,3.566,0H27.18a1.947,1.947,0,0,1,1.942,1.948v6.753H30v-6.753a2.827,2.827,0,0,0-2.82-2.828ZM5.994,200.492A2.345,2.345,0,0,1,8.332,202.8a1.625,1.625,0,0,0-1.322-.679H4.977a1.626,1.626,0,0,0-1.322.679,2.345,2.345,0,0,1,2.338-2.307Zm.95,7.918a.95.95,0,1,1-1.9,0v-.818a3.214,3.214,0,0,0,1.9,0Zm-.95-1.554a2.345,2.345,0,0,1-2.336-2.24l.658-1.221a.75.75,0,0,1,.661-.4H7.011a.751.751,0,0,1,.661.4l.658,1.221a2.345,2.345,0,0,1-2.336,2.24Zm5.789-3.532a3.216,3.216,0,1,1,6.433,0v.461l-.115-.213a2,2,0,0,0-1.764-1.054H13.662a2,2,0,0,0-1.764,1.054l-.115.213Zm4.605,7.331a1.389,1.389,0,1,1-2.778,0v-1.27a4.082,4.082,0,0,0,2.778,0ZM15,208.75a3.224,3.224,0,0,1-3.214-3.119l.884-1.639a1.126,1.126,0,0,1,.992-.593h2.675a1.126,1.126,0,0,1,.992.593l.884,1.639A3.224,3.224,0,0,1,15,208.75Zm9.006-8.257a2.345,2.345,0,0,1,2.338,2.307,1.625,1.625,0,0,0-1.322-.679H22.989a1.626,1.626,0,0,0-1.322.679,2.345,2.345,0,0,1,2.338-2.307Zm.95,7.918a.95.95,0,1,1-1.9,0v-.818a3.214,3.214,0,0,0,1.9,0Zm-.95-1.554a2.345,2.345,0,0,1-2.336-2.24l.658-1.221a.751.751,0,0,1,.661-.4h2.033a.75.75,0,0,1,.661.4l.658,1.221a2.345,2.345,0,0,1-2.336,2.24Zm0,0" transform="translate(0 -187.512)"/>
    <path id="Path_297" data-name="Path 297" class="cls-1" d="M466.555,413.191h.877v5.719h-.877Zm0,0" transform="translate(-439.218 -388.91)"/>
    <path id="Path_298" data-name="Path 298" class="cls-1" d="M30.477,413.191h.877v5.719h-.877Zm0,0" transform="translate(-28.691 -388.91)"/>
    <path id="Path_299" data-name="Path 299" class="cls-1" d="M4.948,9.615,6.375,7.038h2.52V0H1V7.038H3.52ZM1.877.88h6.14V6.158H5.859L4.948,7.8,4.036,6.158H1.877Zm0,0" transform="translate(-0.942)"/>
    <path id="Path_300" data-name="Path 300" class="cls-1" d="M377.262,0V7.038h2.52l1.428,2.577,1.428-2.577h2.52V0Zm7.018,6.158h-2.159L381.21,7.8,380.3,6.158h-2.159V.88h6.14Zm0,0" transform="translate(-355.157 0)"/>
    <path id="Path_301" data-name="Path 301" class="cls-1" d="M155.965,9.615l1.428-2.577h4.83V0H149.707V7.038h4.83ZM150.584.88h10.76V6.158h-4.469L155.965,7.8l-.912-1.645h-4.468Zm0,0" transform="translate(-140.935)"/>
    <path id="Path_302" data-name="Path 302" class="cls-1" d="M63.375,39.922h2.339v.88H63.375Zm0,0" transform="translate(-59.662 -37.576)"/>
    <path id="Path_303" data-name="Path 303" class="cls-1" d="M33.434,39.922h.877v.88h-.877Zm0,0" transform="translate(-31.475 -37.576)"/>
    <path id="Path_304" data-name="Path 304" class="cls-1" d="M33.434,69.863h2.339v.88H33.434Zm0,0" transform="translate(-31.475 -65.758)"/>
    <path id="Path_305" data-name="Path 305" class="cls-1" d="M88.328,69.863h.877v.88h-.877Zm0,0" transform="translate(-83.153 -65.758)"/>
    <path id="Path_306" data-name="Path 306" class="cls-1" d="M439.641,39.922h2.339v.88h-2.339Zm0,0" transform="translate(-413.881 -37.576)"/>
    <path id="Path_307" data-name="Path 307" class="cls-1" d="M409.7,39.922h.877v.88H409.7Zm0,0" transform="translate(-385.693 -37.576)"/>
    <path id="Path_308" data-name="Path 308" class="cls-1" d="M409.7,69.863h2.339v.88H409.7Zm0,0" transform="translate(-385.693 -65.758)"/>
    <path id="Path_309" data-name="Path 309" class="cls-1" d="M464.594,69.863h.877v.88h-.877Zm0,0" transform="translate(-437.372 -65.758)"/>
    <path id="Path_310" data-name="Path 310" class="cls-1" d="M271.469,34.934h.877v.88h-.877Zm0,0" transform="translate(-255.563 -32.881)"/>
    <path id="Path_311" data-name="Path 311" class="cls-1" d="M301.41,34.934h1.462v.88H301.41Zm0,0" transform="translate(-283.749 -32.881)"/>
    <path id="Path_312" data-name="Path 312" class="cls-1" d="M186.637,34.934h4.094v.88h-4.094Zm0,0" transform="translate(-175.701 -32.881)"/>
    <path id="Path_313" data-name="Path 313" class="cls-1" d="M311.391,65.871h.877v.88h-.877Zm0,0" transform="translate(-293.146 -62.001)"/>
    <path id="Path_314" data-name="Path 314" class="cls-1" d="M186.637,65.871h2.339v.88h-2.339Zm0,0" transform="translate(-175.701 -62.001)"/>
    <path id="Path_315" data-name="Path 315" class="cls-1" d="M241.527,65.871h3.216v.88h-3.216Zm0,0" transform="translate(-227.375 -62.001)"/>
  </g>
</svg>
