<svg xmlns="http://www.w3.org/2000/svg" width="30.67" height="30.67" viewBox="0 0 30.67 30.67">
  <defs>
    <style>
      .cls-1 {
        fill: #003e72;
      }
    </style>
  </defs>
  <g id="donation" transform="translate(0 -0.005)">
    <g id="Group_175" data-name="Group 175" transform="translate(0 0.005)">
      <g id="Group_174" data-name="Group 174" transform="translate(0 0)">
        <path id="Path_93" data-name="Path 93" class="cls-1" d="M410,38.065a2.581,2.581,0,0,1,1.555,1.556.511.511,0,1,0,.964-.341,3.563,3.563,0,0,0-2.177-2.179.511.511,0,1,0-.342.964Z" transform="translate(-385.123 -34.852)"/>
        <path id="Path_94" data-name="Path 94" class="cls-1" d="M196.689,17.322a.512.512,0,0,0,.49,0c5.818-3.173,8.956-8.394,8.956-11.694a5.624,5.624,0,0,0-10.722-2.373.511.511,0,1,0,.926.432,4.6,4.6,0,0,1,8.773,1.941c0,3-3.053,7.77-8.179,10.661-5.125-2.891-8.179-7.66-8.179-10.661A4.6,4.6,0,0,1,195.2,1.411a.511.511,0,1,0,.409-.936,5.625,5.625,0,0,0-7.874,5.154C187.733,8.928,190.872,14.149,196.689,17.322Z" transform="translate(-176.488 -0.005)"/>
        <path id="Path_95" data-name="Path 95" class="cls-1" d="M102.911,308.227H107a6.323,6.323,0,0,1,2.5,1.431c1.121.841,2.181,1.636,3.118,1.636h3.067a1.779,1.779,0,0,1,1.172.361.511.511,0,0,0,.723-.723,2.717,2.717,0,0,0-1.895-.661h-3.067a6.32,6.32,0,0,1-2.5-1.431C109,308,107.937,307.2,107,307.2h-4.089a.511.511,0,0,0,0,1.022Z" transform="translate(-96.266 -288.803)"/>
        <path id="Path_96" data-name="Path 96" class="cls-1" d="M18.6,444.506a.767.767,0,1,0-.767.767A.768.768,0,0,0,18.6,444.506Z" transform="translate(-16.045 -417.159)"/>
        <path id="Path_97" data-name="Path 97" class="cls-1" d="M126.66,342.335a2.032,2.032,0,0,0-1.242-.952,2,2,0,0,0-1.52.187l-5.883,2.864c-.914.457-1.838.457-3.86.457a39.3,39.3,0,0,1-5.028-.5.511.511,0,1,0-.168,1.008,39.366,39.366,0,0,0,5.2.518c2.122,0,3.188,0,4.313-.563l5.911-2.878a1.022,1.022,0,1,1,1.007,1.779l-6.911,4.3a9.639,9.639,0,0,1-4.831.938c-2.9,0-7.374-2.467-7.439-2.5a7.89,7.89,0,0,0-3.3-.565.511.511,0,1,0,0,1.022,7.255,7.255,0,0,1,2.819.447c.193.107,4.753,2.62,7.916,2.62,3.69,0,5.327-1.063,5.382-1.1l6.886-4.286a2.045,2.045,0,0,0,.748-2.793Z" transform="translate(-96.264 -320.866)"/>
        <path id="Path_98" data-name="Path 98" class="cls-1" d="M3.578,273.072H.511a.511.511,0,1,0,0,1.022H3.578a.512.512,0,0,1,.511.511v11.246a.512.512,0,0,1-.511.511H.511a.511.511,0,1,0,0,1.022H3.578a1.535,1.535,0,0,0,1.533-1.533V274.605A1.535,1.535,0,0,0,3.578,273.072Z" transform="translate(0 -256.715)"/>
      </g>
    </g>
  </g>
</svg>
