<svg xmlns="http://www.w3.org/2000/svg" width="23.652" height="21.739" viewBox="0 0 23.652 21.739">
  <defs>
    <style>
      .cls-1 {
        fill: #0888f5;
      }

      .cls-2 {
        fill: #fff;
      }
    </style>
  </defs>
  <g id="Group_213" data-name="Group 213" transform="translate(0 -20.704)">
    <path id="Path_148" data-name="Path 148" class="cls-1" d="M343.2,28.454h-.316a23.431,23.431,0,0,0-2.584-5.472,1.248,1.248,0,1,0-1.411,0,23.435,23.435,0,0,0-2.584,5.472h-.316a.471.471,0,0,0-.471.471,4.076,4.076,0,0,0,8.152,0A.471.471,0,0,0,343.2,28.454ZM339.6,21.646a.306.306,0,1,1-.306.306A.306.306,0,0,1,339.6,21.646Zm0,1.991a24.239,24.239,0,0,1,2.331,4.816h-4.66A23.644,23.644,0,0,1,339.6,23.637Zm0,8.422a3.139,3.139,0,0,1-3.1-2.663h6.2A3.139,3.139,0,0,1,339.6,32.059Z" transform="translate(-320.023)"/>
    <path id="Path_149" data-name="Path 149" class="cls-2" d="M16.019,63.345H14.774v-1.2a.471.471,0,0,0-.471-.471h-1.2V48.517a1.783,1.783,0,0,0,.53-1.181l1.992-.429a.471.471,0,1,0-.2-.921l-2,.43a1.787,1.787,0,0,0-3.367.725L5.084,48.212a1.248,1.248,0,1,0-1.714,1.764A23.433,23.433,0,0,0,.787,55.449H.471A.471.471,0,0,0,0,55.92a4.076,4.076,0,1,0,8.152,0,.471.471,0,0,0-.471-.471H7.365a23.434,23.434,0,0,0-2.584-5.472,1.25,1.25,0,0,0,.53-.849l4.949-1.065a1.8,1.8,0,0,0,.334.454V61.678H9.4a.471.471,0,0,0-.471.471v1.2H7.681a.471.471,0,0,0-.471.471v1.766a.471.471,0,0,0,.471.471h8.338a.471.471,0,0,0,.471-.471V63.816A.471.471,0,0,0,16.019,63.345ZM4.076,48.641a.306.306,0,1,1-.306.306A.306.306,0,0,1,4.076,48.641Zm0,10.412a3.139,3.139,0,0,1-3.1-2.663h6.2A3.139,3.139,0,0,1,4.076,59.054Zm2.331-3.605H1.747a23.649,23.649,0,0,1,2.328-4.816A24.237,24.237,0,0,1,6.407,55.449ZM11.85,46.4a.845.845,0,1,1-.845.845A.846.846,0,0,1,11.85,46.4Zm.314,2.605V61.678h-.627V49.005a1.764,1.764,0,0,0,.627,0ZM9.869,62.62h3.963v.725H9.869V62.62Zm5.679,2.491h-7.4v-.823h7.4Z" transform="translate(0 -23.611)"/>
  </g>
</svg>
