<svg xmlns="http://www.w3.org/2000/svg" width="30" height="25" viewBox="0 0 30 25">
  <defs>
    <style>
      .cls-1 {
        fill: #003e72;
      }
    </style>
  </defs>
  <g id="event" transform="translate(0 0.082)">
    <path id="Path_288" data-name="Path 288" class="cls-1" d="M26.25,2.09H24.225V.552a.761.761,0,0,0-1.5,0V2.09H7.275V.552a.7.7,0,0,0-.75-.634.7.7,0,0,0-.75.634V2.09H3.75A3.516,3.516,0,0,0,0,5.28V21.763a3.489,3.489,0,0,0,3.745,3.155h22.5A3.491,3.491,0,0,0,30,21.767V5.28a3.516,3.516,0,0,0-3.75-3.19ZM28.5,21.763a2.088,2.088,0,0,1-2.242,1.886H3.75A2.091,2.091,0,0,1,1.5,21.77V5.28A2.115,2.115,0,0,1,3.75,3.358H5.775V5.583a.7.7,0,0,0,.75.634.7.7,0,0,0,.75-.634V3.358h15.45V5.583a.761.761,0,0,0,1.5,0V3.358H26.25A2.115,2.115,0,0,1,28.5,5.28Zm0,0"/>
    <path id="Path_289" data-name="Path 289" class="cls-1" d="M120.031,280.23H103.91a.643.643,0,1,0,0,1.268h16.121a.643.643,0,1,0,0-1.268Zm0,0" transform="translate(-96.97 -266.092)"/>
    <path id="Path_290" data-name="Path 290" class="cls-1" d="M120.031,370.23H103.91a.643.643,0,1,0,0,1.268h16.121a.643.643,0,1,0,0-1.268Zm0,0" transform="translate(-96.97 -351.526)"/>
    <path id="Path_291" data-name="Path 291" class="cls-1" d="M103.91,192.748h8.732a.643.643,0,1,0,0-1.268H103.91a.643.643,0,1,0,0,1.268Zm0,0" transform="translate(-96.97 -181.844)"/>
  </g>
</svg>
