<svg xmlns="http://www.w3.org/2000/svg" width="30" height="30" viewBox="0 0 30 30">
  <g id="cash" transform="translate(-0.386 0)">
    <path id="Path_254" data-name="Path 254" d="M24.1,346.3a1.932,1.932,0,0,0-1.732.863,1.2,1.2,0,0,0,.375,1.57,2.246,2.246,0,0,0,2.016.324,1.482,1.482,0,0,0,1.148-1.325A1.652,1.652,0,0,0,24.1,346.3Zm0,1.825a.547.547,0,0,1-.5-.221.329.329,0,0,1,.084-.44.615.615,0,0,1,.559-.1.41.41,0,0,1,.323.367A.435.435,0,0,1,24.1,348.122Zm0,0" transform="translate(-19.747 -320.631)" fill="#22598a"/>
    <path id="Path_255" data-name="Path 255" d="M28.874,1.939h-.988V1.173A1.377,1.377,0,0,0,26.375,0H13.562a1.377,1.377,0,0,0-1.512,1.173v5.09L4.014,11.2a.605.605,0,0,0-.062.043A2.572,2.572,0,0,0,2.89,13.255V24.077H2.01a1.479,1.479,0,0,0-1.624,1.26v3.4A1.479,1.479,0,0,0,2.01,30h14.4a1.479,1.479,0,0,0,1.624-1.26v-3.4a1.479,1.479,0,0,0-1.624-1.26h-.349V23.36c1.757-.252,3.033-1.44,3.035-2.826V19.006h9.775a1.376,1.376,0,0,0,1.511-1.173V3.112a1.376,1.376,0,0,0-1.511-1.173Zm-15.312-.9H26.375a.158.158,0,0,1,.174.135V15.894a.159.159,0,0,1-.174.135H13.139l2.954-2.292a1.944,1.944,0,0,0,0-3.231l-.537-.416a.817.817,0,0,0-.889-.04l-1.28.786V1.173a.123.123,0,0,1,.052-.1.2.2,0,0,1,.124-.039Zm3.137,24.3v3.4a.261.261,0,0,1-.287.222H2.01a.261.261,0,0,1-.287-.222v-3.4a.261.261,0,0,1,.287-.222h14.4A.261.261,0,0,1,16.7,25.337Zm1.062-4.8A2.155,2.155,0,0,1,15.4,22.369a.608.608,0,0,0-.669.519v1.189H4.227V13.255a1.635,1.635,0,0,1,.651-1.265l7.172-4.4v4.072L7.38,14.528a.446.446,0,0,0-.109.729.807.807,0,0,0,.94.085l6.822-4.191.116.09a1.061,1.061,0,0,1,0,1.763l-3.219,2.5a.477.477,0,0,0-.2.337l-.04.545c0,.01,0,.02,0,.03a2.342,2.342,0,0,0,.364,1.222,2.175,2.175,0,0,1-.252,2.61.442.442,0,0,0-.112.288v1.177a.608.608,0,0,0,.669.519.608.608,0,0,0,.669-.519V20.684a3.007,3.007,0,0,0,.237-3.49c-.025-.042-.048-.085-.069-.127h1.437v.766a1.377,1.377,0,0,0,1.512,1.173h1.616Zm11.286-2.7a.158.158,0,0,1-.174.135H16.146a.158.158,0,0,1-.174-.135v-.766h10.4a1.377,1.377,0,0,0,1.512-1.173V2.977h.988a.158.158,0,0,1,.174.135Zm0,0" fill="#22598a"/>
    <path id="Path_256" data-name="Path 256" d="M168.622,70.151a.608.608,0,0,0,.669.519h3.222a1.912,1.912,0,0,1-1.582.739h-1.64a.69.69,0,0,0-.621.327.441.441,0,0,0,.162.569l4.1,3.005a.811.811,0,0,0,.944-.022.442.442,0,0,0-.026-.733l-2.878-2.11a3.107,3.107,0,0,0,2.972-1.776h1.079a.536.536,0,1,0,0-1.038h-1a2.149,2.149,0,0,0-.525-1h1.529a.536.536,0,1,0,0-1.038H169.29a.536.536,0,1,0,0,1.038h1.64a1.791,1.791,0,0,1,1.718,1H169.29a.608.608,0,0,0-.669.519Zm0,0" transform="translate(-152.162 -62.584)" fill="#22598a"/>
  </g>
</svg>
