<svg xmlns="http://www.w3.org/2000/svg" width="23.861" height="28.893" viewBox="0 0 23.861 28.893">
  <defs>
    <style>
      .cls-1 {
        fill: #003e72;
      }
    </style>
  </defs>
  <g id="light-bulb" transform="translate(-39.7)">
    <path id="Path_99" data-name="Path 99" class="cls-1" d="M124.273,81.828a7.415,7.415,0,1,0-11.815.012,12.276,12.276,0,0,1,2.528,7.384V92.09a2.309,2.309,0,0,0,2.307,2.307h2.146a2.309,2.309,0,0,0,2.307-2.307V89.223A12.162,12.162,0,0,1,124.273,81.828Zm-11.058-.564a6.4,6.4,0,0,1-1.318-3.972,6.5,6.5,0,0,1,6.37-6.4,6.465,6.465,0,0,1,5.248,10.365,13.125,13.125,0,0,0-2.729,7.791h-4.851A13.245,13.245,0,0,0,113.215,81.263Zm2.722,10.5v-.385l4.858.557v.15a1.357,1.357,0,0,1-.021.232Zm0-1.342V90h4.858v.988Zm1.356,3.02a1.357,1.357,0,0,1-1.187-.7l4.092.469a1.348,1.348,0,0,1-.759.233h-2.146Z" transform="translate(-66.73 -65.504)"/>
    <path id="Path_100" data-name="Path 100" class="cls-1" d="M138.949,179.9a4.864,4.864,0,0,1-.052-.759.475.475,0,0,0-.951-.009,5.818,5.818,0,0,0,.063.908.475.475,0,1,0,.94-.14Z" transform="translate(-92.019 -167.338)"/>
    <path id="Path_101" data-name="Path 101" class="cls-1" d="M150.263,223.18a.476.476,0,0,0,.452-.624,15.081,15.081,0,0,0-2.334-4.436,4.8,4.8,0,0,1-.445-.7.475.475,0,0,0-.845.437,5.761,5.761,0,0,0,.533.842,14.133,14.133,0,0,1,2.187,4.157A.475.475,0,0,0,150.263,223.18Z" transform="translate(-100.536 -203.397)"/>
    <path id="Path_102" data-name="Path 102" class="cls-1" d="M287.528,212.038a.475.475,0,0,0-.625.249,4.756,4.756,0,0,1-.579.991.475.475,0,1,0,.758.574,5.713,5.713,0,0,0,.695-1.19A.475.475,0,0,0,287.528,212.038Z" transform="translate(-230.903 -198.563)"/>
    <path id="Path_103" data-name="Path 103" class="cls-1" d="M220.916,97.889a4.758,4.758,0,0,1,4.753,4.753c0,.149-.007.3-.02.446a.475.475,0,0,0,.43.517l.044,0a.475.475,0,0,0,.473-.432c.016-.176.024-.355.024-.533a5.71,5.71,0,0,0-5.7-5.7.475.475,0,0,0,0,.951Z" transform="translate(-169.286 -90.794)"/>
    <path id="Path_104" data-name="Path 104" class="cls-1" d="M220.916,3.613a.475.475,0,0,0,.475-.475V.475a.475.475,0,1,0-.951,0V3.137A.475.475,0,0,0,220.916,3.613Z" transform="translate(-169.286)"/>
    <path id="Path_105" data-name="Path 105" class="cls-1" d="M131.463,27.227a.475.475,0,0,0,.823-.475l-1.33-2.3a.475.475,0,1,0-.823.475Z" transform="translate(-84.642 -22.675)"/>
    <path id="Path_106" data-name="Path 106" class="cls-1" d="M343.627,251.513l-2.3-1.33a.475.475,0,1,0-.475.823l2.3,1.33a.475.475,0,0,0,.475-.823Z" transform="translate(-281.838 -234.266)"/>
    <path id="Path_107" data-name="Path 107" class="cls-1" d="M64.147,91.256l2.3,1.33a.475.475,0,0,0,.475-.823l-2.3-1.33a.475.475,0,1,0-.475.823Z" transform="translate(-22.675 -84.641)"/>
    <path id="Path_108" data-name="Path 108" class="cls-1" d="M362.317,180.74h-2.662a.475.475,0,0,0,0,.951h2.662a.475.475,0,0,0,0-.951Z" transform="translate(-299.232 -169.285)"/>
    <path id="Path_109" data-name="Path 109" class="cls-1" d="M43.313,181.215a.475.475,0,0,0-.475-.475H40.175a.475.475,0,1,0,0,.951h2.662A.475.475,0,0,0,43.313,181.215Z" transform="translate(0 -169.285)"/>
    <path id="Path_110" data-name="Path 110" class="cls-1" d="M341.085,92.65a.473.473,0,0,0,.237-.064l2.3-1.33a.475.475,0,1,0-.475-.823l-2.3,1.33a.475.475,0,0,0,.238.887Z" transform="translate(-281.838 -84.642)"/>
    <path id="Path_111" data-name="Path 111" class="cls-1" d="M66.451,250.183l-2.3,1.33a.475.475,0,1,0,.475.823l2.3-1.33a.475.475,0,0,0-.475-.823Z" transform="translate(-22.675 -234.267)"/>
    <path id="Path_112" data-name="Path 112" class="cls-1" d="M290.057,27.4a.475.475,0,0,0,.649-.174l1.33-2.3a.475.475,0,0,0-.823-.475l-1.33,2.3A.475.475,0,0,0,290.057,27.4Z" transform="translate(-234.267 -22.675)"/>
  </g>
</svg>
