<svg xmlns="http://www.w3.org/2000/svg" width="20" height="21" viewBox="0 0 20 21">
  <defs>
    <style>
      .cls-1 {
        fill: #ebf1f6;
      }

      .cls-2 {
        fill: #0888f5;
      }
    </style>
  </defs>
  <g id="Group_466" data-name="Group 466" transform="translate(-320 -145)">
    <g id="Group_465" data-name="Group 465">
      <g id="Group_305" data-name="Group 305" transform="translate(320 148.098)">
        <g id="Group_304" data-name="Group 304" transform="translate(0)">
          <path id="Path_173" data-name="Path 173" class="cls-1" d="M22.6,76.159a2.44,2.44,0,0,0,.733-1.749,2.335,2.335,0,1,0-4.667,0,2.428,2.428,0,0,0,1.064,2.019A1.737,1.737,0,0,0,19,77.852v2.41H17.667V78.541A2.386,2.386,0,0,0,15.61,76.15a2.439,2.439,0,0,0,.723-1.74,2.335,2.335,0,1,0-4.667,0,2.439,2.439,0,0,0,.723,1.74,2.386,2.386,0,0,0-2.057,2.391v1.721H9v-2.41a1.737,1.737,0,0,0-.731-1.423A2.428,2.428,0,0,0,9.333,74.41,2.375,2.375,0,0,0,7,72a2.375,2.375,0,0,0-2.333,2.41A2.44,2.44,0,0,0,5.4,76.159,1.7,1.7,0,0,0,4,77.852v5.164A1.712,1.712,0,0,0,5.333,84.7v5.2H6V84.738H9v4.82a.339.339,0,0,0,.333.344h2a.339.339,0,0,0,.333-.344V84.049h2v5.164H12.333V89.9h3.333v-.689H14.333V84.049h2v5.508a.339.339,0,0,0,.333.344h2A.339.339,0,0,0,19,89.557v-4.82h3V89.9h.667V84.7A1.711,1.711,0,0,0,24,83.016V77.852A1.7,1.7,0,0,0,22.6,76.159ZM19.333,74.41A1.668,1.668,0,1,1,21,76.131,1.7,1.7,0,0,1,19.333,74.41Zm-7,0A1.668,1.668,0,1,1,14,76.131,1.7,1.7,0,0,1,12.333,74.41Zm2.186,2.41L14,78.249l-.519-1.429ZM11,78.541a1.7,1.7,0,0,1,1.667-1.721h.1l.919,2.531a.33.33,0,0,0,.624,0l.919-2.531h.1A1.7,1.7,0,0,1,17,78.541v1.721H15.667a.339.339,0,0,0-.333.344v1.377H12.667V80.607a.339.339,0,0,0-.333-.344H11ZM5.333,74.41A1.668,1.668,0,1,1,7,76.131,1.7,1.7,0,0,1,5.333,74.41ZM11,89.213H9.667v-4.82a.339.339,0,0,0-.333-.344H5.667a1.018,1.018,0,0,1-1-1.033V77.852a1.018,1.018,0,0,1,1-1.033H7.333a1.018,1.018,0,0,1,1,1.033v2.754a.339.339,0,0,0,.333.344H12v1.033H7.333v-3.1H6.667v3.443A.339.339,0,0,0,7,82.672h3A1.018,1.018,0,0,1,11,83.7Zm5.371-5.852H11.629a1.747,1.747,0,0,0-.3-.689h5.335A1.747,1.747,0,0,0,16.371,83.361Zm6.963-.344a1.018,1.018,0,0,1-1,1.033H18.667a.339.339,0,0,0-.333.344v4.82H17V83.7a1.018,1.018,0,0,1,1-1.033h3a.339.339,0,0,0,.333-.344V78.885h-.667v3.1H16V80.951h3.333a.339.339,0,0,0,.333-.344V77.852a1.018,1.018,0,0,1,1-1.033h1.667a1.018,1.018,0,0,1,1,1.033Z" transform="translate(-4 -72)"/>
        </g>
      </g>
      <g id="Group_309" data-name="Group 309" transform="translate(323.333 145)">
        <g id="Group_308" data-name="Group 308" transform="translate(0)">
          <path id="Path_174" data-name="Path 174" class="cls-2" d="M89,0H84.333A.339.339,0,0,0,84,.344V2.066a.339.339,0,0,0,.333.344h1.333V3.1a.346.346,0,0,0,.184.308.325.325,0,0,0,.349-.033l1.244-.964H89a.339.339,0,0,0,.333-.344V.344A.339.339,0,0,0,89,0Zm-.333,1.721H87.333a.326.326,0,0,0-.2.069l-.8.62V2.066A.339.339,0,0,0,86,1.721H84.667V.689h4Z" transform="translate(-84)"/>
        </g>
      </g>
      <g id="Group_311" data-name="Group 311" transform="translate(331.857 146.024)">
        <g id="Group_310" data-name="Group 310" transform="translate(0)">
          <rect id="Rectangle_1138" data-name="Rectangle 1138" class="cls-1" width="0.659" height="0.512"/>
        </g>
      </g>
      <g id="Group_313" data-name="Group 313" transform="translate(333.174 146.024)">
        <g id="Group_312" data-name="Group 312" transform="translate(0)">
          <rect id="Rectangle_1139" data-name="Rectangle 1139" class="cls-1" width="0.659" height="0.512"/>
        </g>
      </g>
      <g id="Group_315" data-name="Group 315" transform="translate(334.491 146.024)">
        <g id="Group_314" data-name="Group 314" transform="translate(0)">
          <rect id="Rectangle_1140" data-name="Rectangle 1140" class="cls-1" width="0.659" height="0.512"/>
        </g>
      </g>
    </g>
  </g>
</svg>
