<svg xmlns="http://www.w3.org/2000/svg" width="30" height="26.44" viewBox="0 0 30 26.44">
  <defs>
    <style>
      .cls-1 {
        fill: #003e72;
      }
    </style>
  </defs>
  <path id="map" class="cls-1" d="M29.711,8.178l-7.5-3.629c-.008,0-.016,0-.024-.008a.488.488,0,0,0-.064-.021.5.5,0,0,0-.054-.012A.424.424,0,0,0,22,4.5a.5.5,0,0,0-.056,0,.437.437,0,0,0-.063.012.6.6,0,0,0-.059.018c-.007,0-.014,0-.021.006L15,7.565,8.2,4.542l-.014,0a.433.433,0,0,0-.061-.018.548.548,0,0,0-.057-.014A.5.5,0,0,0,8,4.5a.424.424,0,0,0-.058,0,.535.535,0,0,0-.063.014.509.509,0,0,0-.055.015l-.013,0L.314,7.648A.519.519,0,0,0,0,8.129v22.3a.525.525,0,0,0,.219.429.487.487,0,0,0,.466.052l7.308-3.031L14.8,30.9c.007,0,.014,0,.022,0a.431.431,0,0,0,.351,0c.007,0,.014,0,.021,0l6.81-3.026,7.308,3.031a.484.484,0,0,0,.186.037.491.491,0,0,0,.281-.089A.526.526,0,0,0,30,30.425V8.648A.52.52,0,0,0,29.711,8.178ZM1,8.48l6.5-2.7V26.963L1,29.659ZM8.5,5.8l6,2.667V29.638l-6-2.667Zm7,2.666,6-2.667V26.971l-6,2.667ZM29,29.659l-6.5-2.7V5.832L29,8.978Z" transform="translate(0 -4.503)"/>
</svg>
