<?xml version="1.0" encoding="UTF-8"?>
<!DOCTYPE svg PUBLIC "-//W3C//DTD SVG 1.1//EN" "http://www.w3.org/Graphics/SVG/1.1/DTD/svg11.dtd">
<!-- Creator: CorelDRAW 2018 (64-Bit) -->
<svg xmlns="http://www.w3.org/2000/svg" xml:space="preserve" width="0.310008in" height="0.311953in" version="1.1" style="shape-rendering:geometricPrecision; text-rendering:geometricPrecision; image-rendering:optimizeQuality; fill-rule:evenodd; clip-rule:evenodd"
viewBox="0 0 310.01 311.95"
 xmlns:xlink="http://www.w3.org/1999/xlink">
 <defs>
  <style type="text/css">
   <![CDATA[
    .fil0 {fill:#275998}
   ]]>
  </style>
 </defs>
 <g id="Layer_x0020_1">
  <metadata id="CorelCorpID_0Corel-Layer"/>
  <path class="fil0" d="M308.3 142.34l-46.4 -43.08 0 -70.59 -53.45 0 0 20.96 -53.45 -49.63 -153.29 142.34c-2.16,2.01 -2.29,5.39 -0.28,7.56 2,2.16 5.39,2.28 7.56,0.28l17.74 -16.48 0 178.25 85.52 0 85.52 0 85.52 0 0 -178.25 17.74 16.47c1.03,0.96 2.33,1.43 3.64,1.43 1.44,0 2.87,-0.57 3.91,-1.7 2.01,-2.16 1.88,-5.54 -0.28,-7.56zm-89.16 -102.98l32.07 0 0 49.97 -32.07 -29.78 0 -20.19zm-96.21 261.9l0 -112.58c0,-2.76 2.24,-5.01 5.01,-5.01l54.12 0c2.76,0 5.01,2.24 5.01,5.01l0 112.58 -64.14 0zm149.66 0l-74.83 0 0 -112.58c0,-8.66 -7.04,-15.7 -15.7,-15.7l-54.12 0c-8.66,0 -15.7,7.04 -15.7,15.7l0 112.58 -74.83 0 0 -177.49 117.59 -109.19 76.33 70.87 30.57 28.39 0 0 10.69 9.93 0 177.49z"/>
 </g>
</svg>
