<svg xmlns="http://www.w3.org/2000/svg" width="30" height="25" viewBox="0 0 30 25">
  <g id="stairs" transform="translate(0 -64)">
    <path id="Path_215" data-name="Path 215" d="M29.375,127.5H3.75v-2.778H8.125a.662.662,0,0,0,.625-.694v-3.472h4.375a.662.662,0,0,0,.625-.694v-3.472h4.375a.662.662,0,0,0,.625-.694v-3.472h4.375a.662.662,0,0,0,.625-.694v-3.472h4.375a.7.7,0,0,0,0-1.389h-5a.662.662,0,0,0-.625.694v3.472H18.125a.662.662,0,0,0-.625.694V115H13.125a.662.662,0,0,0-.625.694v3.472H8.125a.662.662,0,0,0-.625.694v3.472H3.125a.662.662,0,0,0-.625.694V127.5H.625a.7.7,0,0,0,0,1.389h28.75a.7.7,0,0,0,0-1.389Z" transform="translate(0 -39.889)" fill="#22589a"/>
    <path id="Path_216" data-name="Path 216" d="M64.622,75.109a.587.587,0,0,0,.411-.172L73.3,66.9l-.522,1.739a.715.715,0,0,0,.4.878.565.565,0,0,0,.2.036.636.636,0,0,0,.593-.475l1.25-4.167a.752.752,0,0,0-.118-.671.6.6,0,0,0-.577-.234l-3.75.694a.689.689,0,0,0-.514.8.636.636,0,0,0,.719.571l1.58-.293-8.344,8.112a.748.748,0,0,0-.059.98A.6.6,0,0,0,64.622,75.109Z" transform="translate(78.997 139.108) rotate(-180)" fill="#22589a"/>
  </g>
</svg>
