<svg xmlns="http://www.w3.org/2000/svg" width="30" height="26.412" viewBox="0 0 30 26.412">
  <defs>
    <style>
      .cls-1 {
        fill: #003e72;
      }
    </style>
  </defs>
  <g id="gallery_1_" data-name="gallery (1)" transform="translate(0 -26.576)">
    <g id="Group_338" data-name="Group 338" transform="translate(0 26.576)">
      <g id="Group_337" data-name="Group 337" transform="translate(0 0)">
        <path id="Path_292" data-name="Path 292" class="cls-1" d="M177.049,159.668a3.074,3.074,0,1,0,3.06,3.074A3.067,3.067,0,0,0,177.049,159.668Zm0,4.684a1.61,1.61,0,0,1,0-3.22h0a1.61,1.61,0,0,1,0,3.22Z" transform="translate(-161.857 -150.346)"/>
        <path id="Path_293" data-name="Path 293" class="cls-1" d="M27.4,28.872,7.506,26.6a2.723,2.723,0,0,0-2.149.622,2.784,2.784,0,0,0-1.056,1.9l-.364,3H2.806A2.935,2.935,0,0,0,0,35.166V50.133A2.776,2.776,0,0,0,2.7,52.987H22.806a3,3,0,0,0,3.06-2.854v-.586a3.634,3.634,0,0,0,1.384-.586,3.042,3.042,0,0,0,1.056-1.976l1.676-14.857A2.961,2.961,0,0,0,27.4,28.872ZM24.409,50.133a1.536,1.536,0,0,1-1.6,1.391h-20a1.314,1.314,0,0,1-1.349-1.278q0-.056,0-.112V47.425L7.1,43.254a1.743,1.743,0,0,1,2.259.11l3.971,3.513a3.416,3.416,0,0,0,2.149.805,3.3,3.3,0,0,0,1.749-.476l7.177-4.172v7.1Zm0-8.819-7.942,4.648a1.851,1.851,0,0,1-2.149-.183l-4.007-3.55a3.231,3.231,0,0,0-4.044-.146L1.458,45.6V35.166a1.475,1.475,0,0,1,1.348-1.574h20a1.679,1.679,0,0,1,1.6,1.574v6.148Zm4.118-9.383v.015L26.814,46.8a1.246,1.246,0,0,1-.474.988c-.146.146-.474.22-.474.293V35.166a3.14,3.14,0,0,0-3.06-3.037H5.393l.328-2.854a1.685,1.685,0,0,1,.546-.951A1.67,1.67,0,0,1,7.36,28.03l19.855,2.305A1.462,1.462,0,0,1,28.527,31.931Z" transform="translate(0 -26.576)"/>
      </g>
    </g>
  </g>
</svg>
