<svg xmlns="http://www.w3.org/2000/svg" width="23" height="30" viewBox="0 0 23 30">
  <g id="surface1" transform="translate(0 -0.04)">
    <path id="Path_265" data-name="Path 265" d="M.264,20.515l.41.178A16.813,16.813,0,0,1,6.1,24.54l3.249,3.39a.349.349,0,0,0,.071.05l0,.006,1.321.862v1.191H11.5V22.79l1.38-1.35,0-.007a.42.42,0,0,0,.045-.04,14.469,14.469,0,0,1,8.989-5.735l.754-.123a.547.547,0,0,0,.079-.968l-3.189-1.456c-2.6-1.186-5.44.6-6.349,3.988-.017.063-.033.126-.048.19l-.835,3.447-.821.8v-7.2a3.169,3.169,0,0,1,.979-2.386l0-.008a.381.381,0,0,0,.062-.054,11.742,11.742,0,0,0,2.209-7.619L14.567.509a.467.467,0,0,0-.329-.464.391.391,0,0,0-.414.327L12.584,4.9a19.954,19.954,0,0,0-.7,5.269v1.127a4.36,4.36,0,0,0-1.15,3.05v.99l-.39-.509c-.065-3.718-1.914-6.982-4.619-8.157l-2.536-1.1c-.2-.088-.418.054-.485.316a.644.644,0,0,0-.011.267l.422,2.481c.675,4.048,3.429,6.928,6.605,6.907h.088l.925,1.207V27.731l-.767-.5V26.2c0-4.322-2.686-7.825-6-7.825a4.742,4.742,0,0,0-1.9.4l-1.808.786a.545.545,0,0,0-.245.631.459.459,0,0,0,.245.319ZM13.888,17.59c.555-2.285,2.179-3.841,4.016-3.848a3.359,3.359,0,0,1,1.4.312l1.693.773a14.977,14.977,0,0,0-7.549,4.588Zm-1.237-7.424a18.7,18.7,0,0,1,.655-4.932L13.919,3l.064,1.339a10.914,10.914,0,0,1-1.332,5.86ZM3.865,8.413l-.276-1.62,1.894.824a7.533,7.533,0,0,1,4.011,6.1L6.405,9.688l-.542.707L9,14.484C6.468,14.1,4.4,11.66,3.865,8.413ZM2.315,19.728c2.741-1.192,5.7.74,6.618,4.315A8.734,8.734,0,0,1,9.2,26.2v.3L6.575,23.76a17.777,17.777,0,0,0-5-3.711Zm0,0" fill="#22589a"/>
  </g>
</svg>
