<?xml version="1.0" encoding="utf-8"?>
<!-- Generator: Adobe Illustrator 22.1.0, SVG Export Plug-In . SVG Version: 6.00 Build 0)  -->
<svg version="1.1" id="Layer_1" xmlns="http://www.w3.org/2000/svg" xmlns:xlink="http://www.w3.org/1999/xlink" x="0px" y="0px"
	 viewBox="0 0 512 512" style="enable-background:new 0 0 512 512;" xml:space="preserve">
<style type="text/css">
	.st0{fill:#22589A;}
</style>
<g transform="translate(0.000000,512.000000) scale(0.100000,-0.100000)">
	<path class="st0" d="M3827,4406c-55-20-103-61-134-114l-28-47l-3-535c-2-391,0-547,9-578c15-55,86-134,141-158c36-15,80-19,261-22
		l217-4V1878c0-945,2-1074,15-1103c16-33,50-55,86-55c33,0,79,29,89,56c6,16,10,439,10,1099v1073l218,4c178,3,224,7,256,21
		c64,28,102,63,130,119l26,52v543c0,439-3,550-14,577c-19,46-72,104-120,129c-41,22-47,22-581,24C3971,4419,3858,4417,3827,4406z
		 M4542,4111c111-35,177-119,186-239c7-103-17-175-78-234c-64-62-119-78-262-78c-60,0-118-5-129-10c-17-10-19-22-19-143
		c0-90-4-137-12-145c-7-7-41-12-85-12c-61,0-74,3-83,19c-6,13-10,164-10,422c0,369,1,404,18,422c16,18,28,19,227,14
		C4411,4124,4522,4117,4542,4111z"/>
	<path class="st0" d="M4247,3963c-4-3-7-57-7-118c0-141-1-140,118-132c112,9,141,17,165,48c21,30,26,124,7,159c-19,36-70,50-178,50
		C4298,3970,4250,3967,4247,3963z"/>
	<path class="st0" d="M860,3561c-81-26-118-48-178-105c-65-61-74-79-192-366c-51-124-95-228-99-232c-3-4-46,5-96,19
		c-115,33-179,35-227,5c-59-36-70-74-66-217c3-120,4-124,34-162c34-43,104-83,146-83c15,0,28-1,28-3s-14-41-31-88
		c-17-46-43-136-57-199c-26-115-26-116-29-690l-4-575l28-55c23-44,39-59,82-82c52-28,56-28,227-28c194,0,224,7,282,63
		c47,45,62,107,62,254v123h1125h1125V997c0-128,2-147,23-187c13-26,40-57,65-75l44-30h203h203l44,30c25,18,53,49,66,75l23,45l-4,595
		l-3,595l-26,105c-14,58-40,142-56,186l-30,82l45,5c59,6,120,50,150,106c20,38,23,59,23,148c0,117-11,156-59,195c-49,42-98,44-225,9
		c-61-17-111-29-113-28c-1,2-46,108-98,235c-52,128-104,251-116,274c-46,90-170,182-280,207c-28,7-395,10-1014,10
		C984,3579,911,3578,860,3561z M2829,3375c29-16,64-44,77-61c32-41,344-801,344-836c0-15-11-40-24-55l-24-28l-1296-3
		c-1423-2-1340-6-1366,57c-15,38-26,7,163,466c116,282,160,379,186,408c34,38,73,63,121,78c14,4,417,7,895,6l870-2L2829,3375z
		 M1181,1931c17-21,19-41,19-186s-2-165-19-186l-19-24l-311-3l-312-3l-29,30l-30,29v157v157l30,29l29,30l312-3l311-3L1181,1931z
		 M3267,1936l28-24v-166c0-232,36-211-360-211s-360-21-360,211v166l28,24l28,24h304h304L3267,1936z"/>
</g>
</svg>
