<svg xmlns="http://www.w3.org/2000/svg" width="30" height="22" viewBox="0 0 30 22">
  <g id="Clocks_1_" transform="translate(0 -14.017)">
    <path id="Clocks" d="M29.541,21.492a1.478,1.478,0,0,0-1.2-.768h-.682v-.718a2.162,2.162,0,0,0-1.914-2.34h-.9V16.34a2.688,2.688,0,0,0-.559-1.671,1.653,1.653,0,0,0-2.632,0,2.688,2.688,0,0,0-.559,1.671V22.56H8.906V16.341a2.685,2.685,0,0,0-.559-1.671,1.653,1.653,0,0,0-2.632,0,2.685,2.685,0,0,0-.559,1.671v1.326H4.148a1.647,1.647,0,0,0-1.262.629,2.5,2.5,0,0,0-.542,1.58v.849H1.669a1.483,1.483,0,0,0-1.209.771A3.236,3.236,0,0,0,0,23.215V26.8a3.232,3.232,0,0,0,.46,1.72,1.483,1.483,0,0,0,1.208.771h.675v.849a2.5,2.5,0,0,0,.543,1.581,1.645,1.645,0,0,0,1.261.628H5.156v1.326a2.685,2.685,0,0,0,.559,1.67,1.7,1.7,0,0,0,1.316.675,1.7,1.7,0,0,0,1.316-.675,2.684,2.684,0,0,0,.559-1.67V27.453H21.093v6.219a2.685,2.685,0,0,0,.559,1.67,1.621,1.621,0,0,0,2.632,0,2.687,2.687,0,0,0,.559-1.67V32.347h.9a2.162,2.162,0,0,0,1.914-2.34v-.718h.682a1.48,1.48,0,0,0,1.2-.768A3.219,3.219,0,0,0,30,26.808v-3.6A3.221,3.221,0,0,0,29.541,21.492ZM1.669,28.065a.61.61,0,0,1-.488-.33A1.785,1.785,0,0,1,.937,26.8V23.215a1.787,1.787,0,0,1,.243-.937.61.61,0,0,1,.488-.33h.675v6.117H1.669Zm2.48,3.059a.825.825,0,0,1-.628-.306,1.059,1.059,0,0,1-.24-.68V19.875A1.059,1.059,0,0,1,3.52,19.2a.827.827,0,0,1,.629-.307H5.156V31.123H4.148Zm3.82,2.549a1.239,1.239,0,0,1-.265.781.858.858,0,0,1-1.345,0,1.237,1.237,0,0,1-.265-.781V16.34a1.239,1.239,0,0,1,.265-.781.834.834,0,0,1,1.345,0,1.24,1.24,0,0,1,.265.781V33.672Zm.937-7.443V23.783H21.093V26.23Zm15,7.443a1.239,1.239,0,0,1-.265.781.858.858,0,0,1-1.345,0,1.237,1.237,0,0,1-.265-.781V16.341a1.239,1.239,0,0,1,.265-.781.834.834,0,0,1,1.345,0,1.237,1.237,0,0,1,.265.781V33.672Zm2.812-3.666a1.055,1.055,0,0,1-.976,1.117h-.9V18.889h.9a1.055,1.055,0,0,1,.976,1.117v10Zm2.344-3.2a1.778,1.778,0,0,1-.241.93.6.6,0,0,1-.484.328h-.682V21.948h.682a.6.6,0,0,1,.484.328,1.772,1.772,0,0,1,.241.93Z" transform="translate(0)" fill="#22589a"/>
  </g>
</svg>
