<svg xmlns="http://www.w3.org/2000/svg" width="23.293" height="20.471" viewBox="0 0 23.293 20.471">
  <defs>
    <style>
      .cls-1 {
        fill: #fff;
      }
    </style>
  </defs>
  <g id="download" transform="translate(0 -31.014)">
    <g id="Group_143" data-name="Group 143" transform="translate(0 45.069)">
      <g id="Group_142" data-name="Group 142">
        <path id="Path_65" data-name="Path 65" class="cls-1" d="M22.7,339.946a.593.593,0,0,0-.593.593V342.8a2.375,2.375,0,0,1-2.372,2.372H3.558A2.375,2.375,0,0,1,1.186,342.8v-2.266a.593.593,0,1,0-1.186,0V342.8a3.562,3.562,0,0,0,3.558,3.558H19.735a3.562,3.562,0,0,0,3.558-3.558v-2.266A.593.593,0,0,0,22.7,339.946Z" transform="translate(0 -339.946)"/>
      </g>
    </g>
    <g id="Group_145" data-name="Group 145" transform="translate(3.6 47.405)">
      <g id="Group_144" data-name="Group 144">
        <path id="Path_66" data-name="Path 66" class="cls-1" d="M94.633,391.3H79.726a.593.593,0,1,0,0,1.186H94.633a.593.593,0,0,0,0-1.186Z" transform="translate(-79.133 -391.3)"/>
      </g>
    </g>
    <g id="Group_147" data-name="Group 147" transform="translate(5.494 31.014)">
      <g id="Group_146" data-name="Group 146" transform="translate(0 0)">
        <path id="Path_67" data-name="Path 67" class="cls-1" d="M132.92,39.063a.593.593,0,0,0-.837-.047L127.511,43.1V31.607a.593.593,0,1,0-1.186,0V43.1l-4.571-4.084a.593.593,0,0,0-.79.885l4.967,4.437a1.482,1.482,0,0,0,1.975,0l4.967-4.437A.593.593,0,0,0,132.92,39.063Z" transform="translate(-120.766 -31.014)"/>
      </g>
    </g>
  </g>
</svg>
