<svg xmlns="http://www.w3.org/2000/svg" width="9.796" height="20.78" viewBox="0 0 9.796 20.78">
  <defs>
    <style>
      .cls-1 {
        fill: none;
        stroke: #fff;
        stroke-width: 0.8px;
      }
    </style>
  </defs>
  <g id="info" transform="translate(-30.571 0.4)">
    <path id="Path_68" data-name="Path 68" class="cls-1" d="M39.7,17.824l-.279,1.141q-1.256.5-2,.755a5.288,5.288,0,0,1-1.738.26,3.471,3.471,0,0,1-2.365-.742,2.4,2.4,0,0,1-.844-1.884,6.665,6.665,0,0,1,.063-.907q.064-.464.2-1.047l1.047-3.7q.14-.532.236-1.009a4.384,4.384,0,0,0,.1-.868,1.343,1.343,0,0,0-.293-.99,1.655,1.655,0,0,0-1.12-.28,2.934,2.934,0,0,0-.832.127c-.285.084-.528.165-.732.241l.28-1.142q1.028-.419,1.968-.717a5.886,5.886,0,0,1,1.78-.3,3.386,3.386,0,0,1,2.33.73,2.423,2.423,0,0,1,.818,1.9c0,.161-.018.445-.056.85a5.685,5.685,0,0,1-.21,1.117l-1.042,3.69a9.8,9.8,0,0,0-.229,1.016,5.231,5.231,0,0,0-.1.862,1.243,1.243,0,0,0,.328,1,1.853,1.853,0,0,0,1.14.266,3.292,3.292,0,0,0,.862-.133A4.82,4.82,0,0,0,39.7,17.824Zm.264-15.491a2.159,2.159,0,0,1-.729,1.643,2.482,2.482,0,0,1-1.755.68,2.51,2.51,0,0,1-1.765-.68,2.154,2.154,0,0,1-.736-1.643A2.176,2.176,0,0,1,35.718.685a2.6,2.6,0,0,1,3.52,0A2.18,2.18,0,0,1,39.967,2.333Z" transform="translate(0 0)"/>
  </g>
</svg>
