<?xml version="1.0" encoding="utf-8"?>
<!-- Generator: Adobe Illustrator 22.1.0, SVG Export Plug-In . SVG Version: 6.00 Build 0)  -->
<svg version="1.1" id="Layer_1" xmlns="http://www.w3.org/2000/svg" xmlns:xlink="http://www.w3.org/1999/xlink" x="0px" y="0px"
	 viewBox="0 0 512 512" style="enable-background:new 0 0 512 512;" xml:space="preserve">
<style type="text/css">
	.st0{fill:#22589A;}
</style>
<g transform="translate(0.000000,512.000000) scale(0.100000,-0.100000)">
	<path class="st0" d="M1460,4940c-20-20-20-33-20-2380s0-2360,20-2380s33-20,1740-20s1720,0,1740,20s20,33,20,2380s0,2360-20,2380
		s-33,20-1740,20S1480,4960,1460,4940z M4800,2560V320h-40h-40v1980c0,1967,0,1980-20,2000s-33,20-1500,20s-1480,0-1500-20
		s-20-33-20-2000V320h-40h-40v2240v2240h1600h1600V2560z M3120,2240V320h-640h-640v1920v1920h640h640V2240z M4560,2240V320h-640
		h-640v1920v1920h640h640V2240z"/>
	<path class="st0" d="M2000,4560v-80h80h80v80v80h-80h-80V4560z"/>
	<path class="st0" d="M2320,4560v-80h80h80v80v80h-80h-80V4560z"/>
	<path class="st0" d="M2640,4560v-80h80h80v80v80h-80h-80V4560z"/>
	<path class="st0" d="M2960,4560v-80h80h80v80v80h-80h-80V4560z"/>
	<path class="st0" d="M3280,4560v-80h80h80v80v80h-80h-80V4560z"/>
	<path class="st0" d="M3600,4560v-80h80h80v80v80h-80h-80V4560z"/>
	<path class="st0" d="M3920,4560v-80h80h80v80v80h-80h-80V4560z"/>
	<path class="st0" d="M4240,4560v-80h80h80v80v80h-80h-80V4560z"/>
	<path class="st0" d="M180,3420c-20-20-20-33-20-860s0-840,20-860c19-19,33-20,540-20s521,1,540,20c20,20,20,33,20,860s0,840-20,860
		c-19,19-33,20-540,20S199,3439,180,3420z M1120,2560v-720H720H320v720v720h400h400V2560z"/>
	<path class="st0" d="M668,3187c-9-7-73-107-142-223c-136-226-148-262-106-304c19-19,33-20,300-20s281,1,300,20c42,42,30,78-106,304
		c-69,116-133,216-142,223C750,3203,690,3203,668,3187z"/>
	<path class="st0" d="M420,2460c-42-42-30-78,106-305c69-115,133-216,142-222c21-17,83-17,104,0c9,6,73,107,142,222
		c136,227,148,263,106,305c-19,19-33,20-300,20S439,2479,420,2460z"/>
</g>
</svg>
