<svg xmlns="http://www.w3.org/2000/svg" width="30.205" height="30.203" viewBox="0 0 30.205 30.203">
  <defs>
    <style>
      .cls-1 {
        fill: #003e72;
      }
    </style>
  </defs>
  <g id="maintenance" transform="translate(-1 -1.004)">
    <path id="Path_80" data-name="Path 80" class="cls-1" d="M37.337,10.016a1.439,1.439,0,0,0-.589-.946L26.032,1.276a1.412,1.412,0,0,0-.664-.262,1.762,1.762,0,0,0-.386,0,1.477,1.477,0,0,0-.655.26L13.615,9.065a1.465,1.465,0,0,0-.345,2.041,1.5,1.5,0,0,0,2.042.339l.61-.443v8.512a1.459,1.459,0,0,0,.223.765L15.14,21.286l.85.85a4.818,4.818,0,0,0-.327.789h-1.2v2.923h1.2a4.825,4.825,0,0,0,.327.789l-.85.85,2.067,2.067.85-.85a4.845,4.845,0,0,0,.789.328v1.2h2.923v-1.2a4.8,4.8,0,0,0,.789-.328l.85.85,2.067-2.067-.85-.85a4.818,4.818,0,0,0,.327-.789h1.2V22.925h-1.2a4.825,4.825,0,0,0-.327-.789l.85-.85-.31-.31h7.809a1.463,1.463,0,0,0,1.462-1.462V11l.616.448a1.462,1.462,0,0,0,2.036-.342,1.439,1.439,0,0,0,.25-1.091ZM25.179,23.9v.974H24.19l-.086.379a3.866,3.866,0,0,1-.5,1.205l-.207.329.7.7-.689.689-.7-.7-.329.208a3.88,3.88,0,0,1-1.205.5l-.379.086v.988H19.82V28.27l-.379-.086a3.885,3.885,0,0,1-1.205-.5l-.329-.208-.7.7-.689-.689.7-.7-.207-.329a3.866,3.866,0,0,1-.5-1.205l-.086-.379h-.988V23.9h.988l.086-.379a3.866,3.866,0,0,1,.5-1.205l.207-.329-.7-.7.689-.689.7.7.329-.208a3.88,3.88,0,0,1,1.205-.5l.379-.086v-.988h.974V20.5l.379.086a3.885,3.885,0,0,1,1.205.5l.329.208.7-.7.689.689-.7.7.207.329a3.867,3.867,0,0,1,.5,1.205l.086.379Zm8.282-4.385a.488.488,0,0,1-.487.487H24.19l-.783-.782-.85.85a4.845,4.845,0,0,0-.789-.328v-1.2H18.845v1.2a4.8,4.8,0,0,0-.789.328l-.85-.85-.308.308a.111.111,0,0,0,0-.013V10.293l5.161-3.756-.864,5.183h2.852l-1.356,4.728,7.037-7.741-3.867.076,1.08-3.238,6.522,4.748ZM22.344,10.746l.837-5.027,2-1.454.933.679L24.5,9.784l2.984-.058L24.777,12.7l.562-1.957ZM36.3,10.539h0a.508.508,0,0,1-.677.118l-10.44-7.6-10.434,7.6a.5.5,0,0,1-.683-.116.491.491,0,0,1,.121-.68L24.891,2.071a.488.488,0,0,1,.2-.088.885.885,0,0,1,.16,0,.429.429,0,0,1,.2.081l10.725,7.8a.491.491,0,0,1,.114.675Z" transform="translate(-6.153)"/>
    <path id="Path_81" data-name="Path 81" class="cls-1" d="M8.795,30.115V26.26L7.535,25H5.872v2.923H3.923V25H2.26L1,26.26v3.856l1.937,1.452-.475,9.509a2.436,2.436,0,1,0,4.871-.024l-.474-9.485ZM6.359,41.077a1.462,1.462,0,0,1-2.924.024l.5-10L1.974,29.628V26.663l.689-.689h.285V28.9h3.9V25.974h.285l.689.689v2.965L5.86,31.1Z" transform="translate(0 -12.306)"/>
    <path id="Path_82" data-name="Path 82" class="cls-1" d="M8,57h.974v.974H8Z" transform="translate(-3.59 -28.716)"/>
    <path id="Path_83" data-name="Path 83" class="cls-1" d="M25.436,44a2.436,2.436,0,1,0,2.436,2.436A2.439,2.439,0,0,0,25.436,44Zm0,3.9A1.462,1.462,0,1,1,26.9,46.436,1.463,1.463,0,0,1,25.436,47.9Z" transform="translate(-11.282 -22.049)"/>
  </g>
</svg>
