<svg xmlns="http://www.w3.org/2000/svg" width="30" height="30" viewBox="0 0 30 30">
  <defs>
    <style>
      .cls-1 {
        fill: #003e72;
      }
    </style>
  </defs>
  <g id="Group_341" data-name="Group 341" transform="translate(-320 -145)">
    <g id="Group_305" data-name="Group 305" transform="translate(320 149.426)">
      <g id="Group_304" data-name="Group 304" transform="translate(0)">
        <path id="Path_173" data-name="Path 173" class="cls-1" d="M31.9,77.941a3.406,3.406,0,0,0,1.1-2.5,3.5,3.5,0,0,0-7,0,3.426,3.426,0,0,0,1.6,2.885,2.448,2.448,0,0,0-1.1,2.033V83.8h-2V81.344a3.467,3.467,0,0,0-3.085-3.416A3.4,3.4,0,0,0,22.5,75.443a3.5,3.5,0,0,0-7,0,3.4,3.4,0,0,0,1.085,2.486A3.467,3.467,0,0,0,13.5,81.344V83.8h-2V80.361a2.448,2.448,0,0,0-1.1-2.033A3.426,3.426,0,0,0,12,75.443a3.5,3.5,0,0,0-7,0,3.406,3.406,0,0,0,1.1,2.5A2.469,2.469,0,0,0,4,80.361v7.377a2.474,2.474,0,0,0,2,2.409v7.427H7V90.2h4.5v6.885a.5.5,0,0,0,.5.492h3a.5.5,0,0,0,.5-.492V89.213h3V96.59h-2v.984h5V96.59h-2V89.213h3v7.869a.5.5,0,0,0,.5.492h3a.5.5,0,0,0,.5-.492V90.2H31v7.377h1V90.147a2.474,2.474,0,0,0,2-2.409V80.361A2.469,2.469,0,0,0,31.9,77.941Zm-4.9-2.5A2.5,2.5,0,1,1,29.5,77.9,2.483,2.483,0,0,1,27,75.443Zm-10.5,0A2.5,2.5,0,1,1,19,77.9,2.483,2.483,0,0,1,16.5,75.443Zm3.279,3.443L19,80.927l-.778-2.042ZM14.5,81.344A2.483,2.483,0,0,1,17,78.885h.153L18.532,82.5a.5.5,0,0,0,.937,0l1.378-3.615H21a2.483,2.483,0,0,1,2.5,2.459V83.8h-2a.5.5,0,0,0-.5.492v1.967H17V84.3a.5.5,0,0,0-.5-.492h-2ZM6,75.443A2.5,2.5,0,1,1,8.5,77.9,2.483,2.483,0,0,1,6,75.443ZM14.5,96.59h-2V89.7a.5.5,0,0,0-.5-.492H6.5A1.49,1.49,0,0,1,5,87.738V80.361a1.49,1.49,0,0,1,1.5-1.475H9a1.49,1.49,0,0,1,1.5,1.475V84.3a.5.5,0,0,0,.5.492h5v1.475H9V81.836H8v4.918a.5.5,0,0,0,.5.492H13a1.49,1.49,0,0,1,1.5,1.475Zm8.056-8.361H15.444A2.436,2.436,0,0,0,15,87.246h8A2.436,2.436,0,0,0,22.556,88.229ZM33,87.738a1.49,1.49,0,0,1-1.5,1.475H26a.5.5,0,0,0-.5.492V96.59h-2V88.721A1.49,1.49,0,0,1,25,87.246h4.5a.5.5,0,0,0,.5-.492V81.836H29v4.426H22V84.787h5a.5.5,0,0,0,.5-.492V80.361A1.49,1.49,0,0,1,29,78.885h2.5A1.49,1.49,0,0,1,33,80.361Z" transform="translate(-4 -72)"/>
      </g>
    </g>
    <g id="Group_309" data-name="Group 309" transform="translate(325 145)">
      <g id="Group_308" data-name="Group 308" transform="translate(0)">
        <path id="Path_174" data-name="Path 174" class="cls-1" d="M91.5,0h-7a.5.5,0,0,0-.5.492V2.951a.5.5,0,0,0,.5.492h2v.984a.492.492,0,0,0,.277.44A.508.508,0,0,0,87.3,4.82l1.867-1.377H91.5a.5.5,0,0,0,.5-.492V.492A.5.5,0,0,0,91.5,0ZM91,2.459H89a.505.505,0,0,0-.3.1l-1.2.885V2.951a.5.5,0,0,0-.5-.492H85V.984h6Z" transform="translate(-84)"/>
      </g>
    </g>
    <g id="Group_311" data-name="Group 311" transform="translate(337.785 146.463)">
      <g id="Group_310" data-name="Group 310" transform="translate(0)">
        <rect id="Rectangle_1138" data-name="Rectangle 1138" class="cls-1" width="0.988" height="0.732"/>
      </g>
    </g>
    <g id="Group_340" data-name="Group 340" transform="translate(339.985 146.024)">
      <g id="Group_313" data-name="Group 313" transform="translate(0)">
        <g id="Group_312" data-name="Group 312">
          <rect id="Rectangle_1139" data-name="Rectangle 1139" class="cls-1" width="0.659" height="0.512"/>
        </g>
      </g>
    </g>
    <g id="Group_315" data-name="Group 315" transform="translate(341.737 146.463)">
      <g id="Group_314" data-name="Group 314" transform="translate(0)">
        <rect id="Rectangle_1140" data-name="Rectangle 1140" class="cls-1" width="0.988" height="0.732"/>
      </g>
    </g>
  </g>
</svg>
