<svg xmlns="http://www.w3.org/2000/svg" width="25" height="30" viewBox="0 0 25 30">
  <defs>
    <style>
      .cls-1 {
        fill: #003e72;
      }
    </style>
  </defs>
  <g id="surface1" transform="translate(-0.273 0)">
    <path id="Path_197" data-name="Path 197" class="cls-1" d="M20.324,24.792H34.308a.415.415,0,1,0,0-.82H20.324a.415.415,0,1,0,0,.82Zm0,0" transform="translate(-14.541 -18.706)"/>
    <path id="Path_198" data-name="Path 198" class="cls-1" d="M.273,4.092V28.715A1.411,1.411,0,0,0,1.776,30H23.771a1.409,1.409,0,0,0,1.5-1.285V4.092a1.408,1.408,0,0,0-1.5-1.285h-7.3A3.636,3.636,0,0,0,12.338.023,3.485,3.485,0,0,0,9.081,2.807h-7.3A1.408,1.408,0,0,0,.273,4.092ZM24.312,28.715a.508.508,0,0,1-.543.464H1.776a.508.508,0,0,1-.543-.464V8.061H24.316ZM12.774.812a2.667,2.667,0,0,1,2.724,2H10.063A2.664,2.664,0,0,1,12.774.812Zm11,2.814a.511.511,0,0,1,.545.466V7.24H1.233V4.092a.509.509,0,0,1,.543-.466Zm0,0" transform="translate(0 0)"/>
    <path id="Path_199" data-name="Path 199" class="cls-1" d="M36.584,54.339H47.921a.415.415,0,1,0,0-.82H36.584a.415.415,0,1,0,0,.82Zm0,0" transform="translate(-26.624 -41.761)"/>
    <path id="Path_200" data-name="Path 200" class="cls-1" d="M36.584,73.809H47.921a.415.415,0,1,0,0-.82H36.584a.415.415,0,1,0,0,.82Zm0,0" transform="translate(-26.624 -56.952)"/>
    <path id="Path_201" data-name="Path 201" class="cls-1" d="M36.584,93.266H47.921a.415.415,0,1,0,0-.82H36.584a.415.415,0,1,0,0,.82Zm0,0" transform="translate(-26.624 -72.134)"/>
    <path id="Path_202" data-name="Path 202" class="cls-1" d="M36.584,112.725H47.921a.414.414,0,1,0,0-.819H36.584a.414.414,0,1,0,0,.819Zm0,0" transform="translate(-26.624 -87.319)"/>
    <path id="Path_203" data-name="Path 203" class="cls-1" d="M16.926,48.619a.5.5,0,0,0,.319.17h.071a.534.534,0,0,0,.294-.088l3.055-2.041a.38.38,0,0,0,.176-.56.524.524,0,0,0-.654-.149.462.462,0,0,0-.108.072L17.421,47.8l-.464-.566a.532.532,0,0,0-.668-.1.373.373,0,0,0-.118.571Zm0,0" transform="translate(-11.748 -35.811)"/>
    <path id="Path_204" data-name="Path 204" class="cls-1" d="M16.824,67.89a.5.5,0,0,0,.319.171h.071a.542.542,0,0,0,.294-.088l3.055-2.042a.372.372,0,0,0,.1-.573A.533.533,0,0,0,20,65.272l-.022.015-2.654,1.779-.464-.566a.521.521,0,0,0-.642-.185.385.385,0,0,0-.215.551.4.4,0,0,0,.071.089Zm0,0" transform="translate(-11.646 -50.868)"/>
    <path id="Path_205" data-name="Path 205" class="cls-1" d="M16.918,87.125a.5.5,0,0,0,.319.169h.071a.534.534,0,0,0,.294-.088l3.055-2.042a.372.372,0,0,0,.1-.573.534.534,0,0,0-.671-.087l-.022.015-2.657,1.774-.463-.566a.535.535,0,0,0-.669-.1.374.374,0,0,0-.118.572Zm0,0" transform="translate(-11.739 -65.876)"/>
    <path id="Path_206" data-name="Path 206" class="cls-1" d="M16.926,106.523a.5.5,0,0,0,.319.17h.071a.562.562,0,0,0,.294-.087l3.055-2.043a.377.377,0,0,0,.152-.566.531.531,0,0,0-.663-.128.427.427,0,0,0-.076.051L17.421,105.7l-.464-.566a.532.532,0,0,0-.668-.1.373.373,0,0,0-.118.571Zm0,0" transform="translate(-11.748 -80.999)"/>
  </g>
</svg>
