<?xml version="1.0" encoding="utf-8"?>
<!-- Generator: Adobe Illustrator 22.1.0, SVG Export Plug-In . SVG Version: 6.00 Build 0)  -->
<svg version="1.1" id="Layer_1" xmlns="http://www.w3.org/2000/svg" xmlns:xlink="http://www.w3.org/1999/xlink" x="0px" y="0px"
	 viewBox="0 0 512 512" style="enable-background:new 0 0 512 512;" xml:space="preserve">
<style type="text/css">
	.st0{fill:#22589A;}
</style>
<g transform="translate(0.000000,512.000000) scale(0.100000,-0.100000)">
	<path class="st0" d="M482,5099c-53-27-115-96-130-147c-9-28-12-221-12-695v-655l28-53c31-60,93-113,150-129c22-6,181-10,400-10h362
		v-80c0-60-3-80-13-80c-40,0-123-35-159-68c-59-53-88-121-88-204v-67l-484-3l-484-3l-26-24l-26-24V1450V43l23-21C45,1,55,0,252,0
		c114,0,214,3,223,6c41,16,45,49,45,369v305h2040h2040V375c0-320,4-353,45-369c9-3,110-6,224-6c204,0,208,0,229,23l22,23v1405v1406
		l-25,23c-19,18-41,25-92,29l-67,6l-76,380c-42,209-79,392-83,407c-15,58-15,58-602,58h-537l-27-27c-25-26-33-57-107-425l-79-398
		h-602h-603v73c0,48-6,85-19,112c-33,75-111,134-193,149l-38,7v79v80h368c363,0,367,0,417,24c28,12,65,40,84,61c69,80,66,39,66,770
		c0,648,0,661-21,705c-26,56-76,107-129,131c-38,18-96,19-1135,19C526,5120,525,5120,482,5099z M2701,4914l24-26l3-479l3-479H1625
		H520v482c0,481,0,482,22,505l21,23h1057h1057L2701,4914z M2727,3693c-5-46-12-63-32-80l-26-23H1619H569l-24,25c-21,20-25,34-25,80
		v55h1106h1107L2727,3693z M4620,3577c0-2,29-149,65-327s65-328,65-332s-188-8-418-8h-419l-62,318c-34,174-65,325-67,335
		c-5,16,19,17,415,17C4431,3580,4620,3579,4620,3577z M1790,3330v-80h-165h-165v80v80h165h165V3330z M1993,3058c36-19,46-40,47-95
		v-53h-420h-420v48c0,52,19,88,54,102C1288,3074,1967,3072,1993,3058z M4940,1455V180h-80h-80v1167v1167l-22,23l-21,23H2561H386
		l-23-22l-23-21V1348V180h-80h-80v1275v1275h2380h2380V1455z M4600,1620V860H2560H520v760v760h2040h2040V1620z"/>
</g>
</svg>
