<svg xmlns="http://www.w3.org/2000/svg" width="30" height="30" viewBox="0 0 30 30">
  <g id="parking" transform="translate(1 1)">
    <g id="Group_334" data-name="Group 334" transform="translate(-1 -1)">
      <g id="Group_333" data-name="Group 333" transform="translate(0 0)">
        <path id="Path_257" data-name="Path 257" d="M21,173.477v-5.5a1.473,1.473,0,0,0-1.5-1.5h-.25a.5.5,0,0,1-.5-.35l-1.75-6.1v-.05a2.526,2.526,0,0,0-2.3-1.5H5.3a2.526,2.526,0,0,0-2.3,1.5v.05l-1.75,6.1a.6.6,0,0,1-.5.35H.5a1.473,1.473,0,0,0-1.5,1.5v5.5a1.473,1.473,0,0,0,1.5,1.5v2.5a1.473,1.473,0,0,0,1.5,1.5H3a1.473,1.473,0,0,0,1.5-1.5v-2.5h11v2.5a1.473,1.473,0,0,0,1.5,1.5h1a1.473,1.473,0,0,0,1.5-1.5v-2.5A1.473,1.473,0,0,0,21,173.477Zm-17.5,4a.472.472,0,0,1-.5.5H2a.472.472,0,0,1-.5-.5v-2.5h2v2.5Zm15,0a.472.472,0,0,1-.5.5H17a.472.472,0,0,1-.5-.5v-2.5h2v2.5Zm1.5-4a.472.472,0,0,1-.5.5H.5a.472.472,0,0,1-.5-.5v-5.5a.472.472,0,0,1,.5-.5H.75a1.546,1.546,0,0,0,1.45-1.1l1.75-6.05a1.506,1.506,0,0,1,1.35-.85h9.4a1.474,1.474,0,0,1,1.35.85l1.75,6.05a1.546,1.546,0,0,0,1.45,1.1h.25a.472.472,0,0,1,.5.5v5.5Z" transform="translate(1 -148.977)" fill="#22589a"/>
        <path id="Path_258" data-name="Path 258" d="M42.967,326.344a2,2,0,1,0,2,2A2.006,2.006,0,0,0,42.967,326.344Zm0,3a1,1,0,1,1,1-1A1,1,0,0,1,42.967,329.344Z" transform="translate(-38.467 -306.844)" fill="#22589a"/>
        <path id="Path_259" data-name="Path 259" d="M261.2,326.344a2,2,0,1,0,2,2A2.006,2.006,0,0,0,261.2,326.344Zm0,3a1,1,0,1,1,1-1A1,1,0,0,1,261.2,329.344Z" transform="translate(-243.697 -306.844)" fill="#22589a"/>
        <path id="Path_260" data-name="Path 260" d="M160.976,368.311h-2a.5.5,0,0,0,0,1h2a.5.5,0,0,0,0-1Z" transform="translate(-148.976 -346.311)" fill="#22589a"/>
        <path id="Path_261" data-name="Path 261" d="M146.188,334.738h-4a.5.5,0,1,0,0,1h4a.5.5,0,1,0,0-1Z" transform="translate(-133.188 -314.738)" fill="#22589a"/>
        <path id="Path_262" data-name="Path 262" d="M87.292,198.049h9.65a1.044,1.044,0,0,0,.8-.4.969.969,0,0,0,.15-.9l-1.2-4a.975.975,0,0,0-.95-.7h-7.25a.96.96,0,0,0-.95.7l-1.2,4a.969.969,0,0,0,.15.9A1.044,1.044,0,0,0,87.292,198.049Zm1.2-5h7.25l1.2,4h-9.65Z" transform="translate(-81.092 -180.549)" fill="#22589a"/>
        <path id="Path_263" data-name="Path 263" d="M352.132-1h-8.5a.472.472,0,0,0-.5.5V8a.472.472,0,0,0,.5.5h3.5V24h-1a.472.472,0,0,0-.5.5V26h-1a.472.472,0,0,0-.5.5v2a.472.472,0,0,0,.5.5h6a.472.472,0,0,0,.5-.5v-2a.472.472,0,0,0-.5-.5h-1V24.5a.472.472,0,0,0-.5-.5h-1V8.5h4a.472.472,0,0,0,.5-.5V-.5A.472.472,0,0,0,352.132-1Zm-2,29h-5V27h5v1Zm-1.5-2h-2V25h2Zm3-18.5h-7.5V0h7.5Z" transform="translate(-322.632 1)" fill="#22589a"/>
        <path id="Path_264" data-name="Path 264" d="M402.385,38.073a.472.472,0,0,0,.5-.5v-1h.5a2,2,0,0,0,0-4h-1a.472.472,0,0,0-.5.5v4.5A.472.472,0,0,0,402.385,38.073Zm2-3.5a1,1,0,0,1-1,1h-.5v-2h.5A1,1,0,0,1,404.385,34.573Z" transform="translate(-377.885 -30.573)" fill="#22589a"/>
      </g>
    </g>
  </g>
</svg>
