<svg id="Layer_2" data-name="Layer 2" xmlns="http://www.w3.org/2000/svg" width="21.483" height="13.605" viewBox="0 0 21.483 13.605">
  <defs>
    <style>
      .cls-1 {
        fill: #fff;
      }

      .cls-2 {
        fill: #0888f5;
      }
    </style>
  </defs>
  <g id="Layer_1" data-name="Layer 1" transform="translate(0)">
    <path id="Path_70" data-name="Path 70" class="cls-1" d="M0,1.5c.009-.01.023-.019.026-.031A1.781,1.781,0,0,1,1.941,0h15.59a1.754,1.754,0,0,1,1.827,1.358,4.853,4.853,0,0,1,.06.918c.009.327,0,.656,0,1.01-.367,0-.715,0-1.061-.008-.033,0-.087-.11-.087-.17-.01-.426-.007-.853-.012-1.279a.608.608,0,0,0-.662-.668H1.815a.614.614,0,0,0-.664.69c0,1.133,0,2.266,0,3.4V11.67c0,.571.211.78.787.78h15.55c.559,0,.772-.215.769-.772v-1.1h1.068V11.2c0,.4,0,.8-.007,1.2a1.074,1.074,0,0,1-.8,1.064,2.854,2.854,0,0,1-.883.142q-7.912.013-15.821,0A1.746,1.746,0,0,1,.037,12.186.357.357,0,0,0,0,12.114Z" transform="translate(0 0)"/>
    <path id="Path_71" data-name="Path 71" class="cls-2" d="M371.847,99.583v.475c0,.363.007.727,0,1.091a.548.548,0,0,1-.568.568.558.558,0,0,1-.537-.581c0-.441,0-.881,0-1.321v-.231h-.749c-.28,0-.56.009-.839,0a.557.557,0,1,1,.014-1.113c.44-.007.881,0,1.321,0h.248V97.026c0-.462.19-.712.544-.718s.562.246.563.719v1.217c0,.068.006.136.01.222.525,0,1.034,0,1.544,0a.532.532,0,0,1,.572.6.526.526,0,0,1-.568.515c-.433.009-.867,0-1.3.005Z" transform="translate(-352.486 -92.098)"/>
    <path id="Path_72" data-name="Path 72" class="cls-1" d="M63.93,88.149V87.37H74.989v.779Z" transform="translate(-61.135 -83.551)"/>
    <path id="Path_73" data-name="Path 73" class="cls-1" d="M63.93,158.074v-.784h6.3v.784Z" transform="translate(-61.135 -150.414)"/>
  </g>
</svg>
