<svg xmlns="http://www.w3.org/2000/svg" width="22.195" height="22.038" viewBox="0 0 22.195 22.038">
  <defs>
    <style>
      .cls-1 {
        fill: #ebf1f6;
      }

      .cls-1, .cls-2 {
        fill-rule: evenodd;
      }

      .cls-2 {
        fill: #0888f5;
      }

      .cls-3 {
        fill: #fff;
        stroke: #fff;
        stroke-width: 0.4px;
      }
    </style>
  </defs>
  <g id="Group_464" data-name="Group 464" transform="translate(-36 -144.8)">
    <path id="Combined-Shape" class="cls-1" d="M18.674,12.249a.615.615,0,0,1,.616.616l0,7.64a2.815,2.815,0,0,1-2.8,2.822H2.8A2.816,2.816,0,0,1,0,20.505V6.753A2.815,2.815,0,0,1,2.8,3.932l8.667.011a.616.616,0,0,1,0,1.231h0L2.8,5.163a1.582,1.582,0,0,0-1.57,1.589V20.505A1.583,1.583,0,0,0,2.8,22.094H16.492a1.582,1.582,0,0,0,1.57-1.589l0-7.641A.615.615,0,0,1,18.674,12.249Z" transform="translate(36 143.512)"/>
    <path id="Fill-7" class="cls-2" d="M14.224,11.882V11.87H8.694q-.017,0-.546.788v.029h1.46a2.7,2.7,0,0,1,.828.15,1.528,1.528,0,0,1,.868.708v.011H8.694q-.011,0-.557.795a.02.02,0,0,0,.023.023h3.288a.952.952,0,0,1-.069.356q-.442,1.18-2.259,1.18a4.873,4.873,0,0,1-.672-.04l-.011.03v.765q0,.017,3.242,3.8h1.2c.019,0,.028-.007.028-.023v-.155l-2.73-3.3a2.133,2.133,0,0,1-.362-.478V16.5a3.565,3.565,0,0,0,1.54-.386,2.391,2.391,0,0,0,.9-.754,2.347,2.347,0,0,0,.392-.983h1.023q.011,0,.54-.795c0-.011-.009-.019-.029-.023H12.609a1.934,1.934,0,0,0-.415-.869h1.478a8.51,8.51,0,0,0,.552-.805" transform="translate(34.543 141.097)"/>
    <g id="Group_149" data-name="Group 149" transform="translate(50.997 145)">
      <g id="Group_146" data-name="Group 146" transform="translate(0 0)">
        <path id="Path_67" data-name="Path 67" class="cls-3" d="M127.647,34.213a.336.336,0,0,1-.474.027l-2.588-2.312v6.506a.336.336,0,1,1-.671,0V31.928l-2.588,2.312a.336.336,0,0,1-.447-.5l2.812-2.512a.839.839,0,0,1,1.118,0l2.812,2.512A.336.336,0,0,1,127.647,34.213Z" transform="translate(-120.766 -31.014)"/>
      </g>
    </g>
  </g>
</svg>
