<?xml version="1.0" encoding="utf-8"?>
<!-- Generator: Adobe Illustrator 22.1.0, SVG Export Plug-In . SVG Version: 6.00 Build 0)  -->
<svg version="1.1" id="Layer_1" xmlns="http://www.w3.org/2000/svg" xmlns:xlink="http://www.w3.org/1999/xlink" x="0px" y="0px"
	 viewBox="0 0 512 512" style="enable-background:new 0 0 512 512;" xml:space="preserve">
<style type="text/css">
	.st0{fill:#22589A;}
</style>
<g transform="translate(0.000000,512.000000) scale(0.100000,-0.100000)">
	<path class="st0" d="M3975,4794c-239-36-432-214-481-443c-40-191,14-371,155-512c143-142,320-195,516-154c195,41,361,197,421,393
		c87,291-91,612-387,696C4140,4790,4023,4801,3975,4794z"/>
	<path class="st0" d="M3608,3590c-48-14-99-51-122-89c-20-32-33-61-82-178l-14-32l-64,48c-35,27-91,60-123,72l-58,24H2044H944
		l-75-37c-89-44-155-100-197-165c-16-27-78-167-138-313c-59-146-108-266-109-267c-1-2-48,11-106,27c-170,49-238,37-297-50
		c-22-33-23-42-20-171c3-125,5-138,28-172c35-52,95-89,153-95c39-4,47-8,42-21c-39-99-78-231-97-318c-22-104-23-130-26-723
		c-2-439,0-626,8-653c17-59,83-124,143-142c62-18,345-21,414-3c60,15,137,87,152,143c6,22,11,104,11,183v142h1220h1220V650
		c0-171,8-201,68-263c54-55,105-67,288-67c84,0,175,5,202,11c65,13,121,62,158,136l29,58l3,668l3,667h44h45v-643c0-709,0-706,62-781
		c65-79,200-110,293-67c43,19,108,85,128,129c9,20,13,272,17,1000l5,973l44-103c65-152,132-208,248-208c58,0,142,46,178,98
		c25,36,30,55,33,115l4,72l-224,520c-202,469-229,524-269,565c-27,28-60,50-85,58C4496,3602,3654,3604,3608,3590z M3059,3225
		c73-40,112-90,151-190l32-84l-111-258c-116-270-123-295-100-378c16-56,91-129,149-145c62-17,135-6,189,27c33,21,54,45,81,96l37,68
		l17-41c32-81,9-140-62-160c-26-8-458-10-1419-8l-1382,3l-30,29c-23,22-31,39-31,64c0,42,330,852,366,900c30,38,87,78,141,98
		c31,11,205,13,978,11l940-2L3059,3225z M1274,1661l26-24v-182v-182l-26-24l-26-24l-308-3c-344-3-381,1-405,48c-19,38-22,325-3,366
		c24,51,45,54,395,51l321-2L1274,1661z M3498,1684c22-6,22-7,22-230v-223l-32-6c-18-3-172-5-341-3l-309,3l-24,28
		c-23,27-24,33-24,200c0,185,5,208,54,227C2868,1690,3462,1693,3498,1684z"/>
</g>
</svg>
