<svg xmlns="http://www.w3.org/2000/svg" width="28.5" height="27.088" viewBox="0 0 28.5 27.088">
  <defs>
    <style>
      .cls-1 {
        fill: #003e72;
      }
    </style>
  </defs>
  <g id="pie-chart" transform="translate(-0.05)">
    <g id="Group_342" data-name="Group 342" transform="translate(0.05)">
      <path id="Path_316" data-name="Path 316" class="cls-1" d="M24.69,62.423H13.582V51.868a.785.785,0,0,0-.808-.768C5.76,51.1.05,56.526.05,63.191S5.76,75.282,12.774,75.282,25.5,69.856,25.5,63.191A.793.793,0,0,0,24.69,62.423ZM12.774,73.746c-6.123,0-11.108-4.737-11.108-10.555a10.8,10.8,0,0,1,10.3-10.527V63.191a.785.785,0,0,0,.808.768H23.852A10.9,10.9,0,0,1,12.774,73.746Z" transform="translate(-0.05 -48.194)"/>
      <path id="Path_317" data-name="Path 317" class="cls-1" d="M263.682,12.051A11.771,11.771,0,0,0,260.5,4.089,13.031,13.031,0,0,0,250.958,0a.785.785,0,0,0-.808.768V12.091a.785.785,0,0,0,.808.768h11.916a.785.785,0,0,0,.808-.768Zm-11.916-.722V1.57a11.325,11.325,0,0,1,7.517,3.543,10.284,10.284,0,0,1,2.753,6.216h-10.27Z" transform="translate(-235.182)"/>
    </g>
  </g>
</svg>
