<svg xmlns="http://www.w3.org/2000/svg" width="23.609" height="17.952" viewBox="0 0 23.609 17.952">
  <g id="Layer_2" data-name="Layer 2" transform="translate(0.146 0.324)">
    <g id="Layer_1" data-name="Layer 1" transform="translate(0.003 -0.001)">
      <path id="Path_55" data-name="Path 55" d="M23.309,13.7a.528.528,0,0,1-.543.284c-1.145-.009-2.291,0-3.436,0h-.284c0,.1-.011.185-.011.266v2.685c0,.424-.121.548-.535.548H4.822c-.42,0-.542-.121-.542-.541V13.98H.535c-.405,0-.529-.125-.53-.53,0-.659,0-1.319,0-1.979A5.779,5.779,0,0,1,3.257,6.046c.033-.017.064-.038.108-.064-.118-.145-.242-.278-.346-.425a3.357,3.357,0,0,1-.4-3.407A3.349,3.349,0,0,1,5.322.045a3.394,3.394,0,0,1,2.2.4c.279.149.373.341.269.56s-.337.278-.622.131a2.648,2.648,0,0,0-2.992.217A2.7,2.7,0,0,0,5.793,6.2a4.688,4.688,0,0,0,.74-.084c.269-.043.472.057.523.272.057.236-.081.42-.356.486a3.459,3.459,0,0,1-2.43-.263A.448.448,0,0,0,3.936,6.6,4.928,4.928,0,0,0,.785,11.22c-.028.65,0,1.3,0,1.967H4.308A7.439,7.439,0,0,1,8.594,7.259,4.249,4.249,0,0,1,7.473,3.428,4.07,4.07,0,0,1,8.977.954a4.273,4.273,0,0,1,5.746,6.3A7.465,7.465,0,0,1,19,13.19h3.5c.008-.009.026-.02.026-.032a11.753,11.753,0,0,0-.2-3.323,4.919,4.919,0,0,0-2.959-3.243.43.43,0,0,0-.315.014,3.454,3.454,0,0,1-2.431.267c-.277-.068-.414-.244-.365-.48s.255-.332.538-.273a2.715,2.715,0,0,0,3.3-1.883,2.668,2.668,0,0,0-.875-2.829,2.641,2.641,0,0,0-2.92-.355c-.082.037-.16.086-.244.121A.388.388,0,0,1,15.526,1a.357.357,0,0,1,.183-.512A5.848,5.848,0,0,1,16.987.052a3.438,3.438,0,0,1,3.579,1.8,3.468,3.468,0,0,1-.512,3.995c-.035.039-.067.081-.084.1.422.288.863.541,1.252.861A5.656,5.656,0,0,1,23.27,10.59c.009.066.028.131.043.2Zm-5.061,3c0-.064.009-.108.009-.152,0-.895.035-1.792-.009-2.685a6.507,6.507,0,0,0-4-5.943.417.417,0,0,0-.455.035,3.812,3.812,0,0,1-1.619.559,4.162,4.162,0,0,1-2.705-.576.393.393,0,0,0-.284-.057,6.325,6.325,0,0,0-2.255,1.5A6.55,6.55,0,0,0,5.056,14.11v2.585ZM11.629,7.768A3.5,3.5,0,1,0,8.163,4.234,3.522,3.522,0,0,0,11.629,7.768Z" transform="translate(-0.003 0.001)" fill="#22589a" stroke="#22589a" stroke-width="0.3"/>
    </g>
  </g>
</svg>
