<?xml version="1.0" encoding="UTF-8"?>
<!DOCTYPE svg PUBLIC "-//W3C//DTD SVG 1.1//EN" "http://www.w3.org/Graphics/SVG/1.1/DTD/svg11.dtd">
<!-- Creator: CorelDRAW 2018 (64-Bit) -->
<svg xmlns="http://www.w3.org/2000/svg" xml:space="preserve" width="0.207236in" height="0.31in" version="1.1" style="shape-rendering:geometricPrecision; text-rendering:geometricPrecision; image-rendering:optimizeQuality; fill-rule:evenodd; clip-rule:evenodd"
viewBox="0 0 207.24 310"
 xmlns:xlink="http://www.w3.org/1999/xlink">
 <defs>
  <style type="text/css">
   <![CDATA[
    .fil0 {fill:#275998}
   ]]>
  </style>
 </defs>
 <g id="Layer_x0020_1">
  <metadata id="CorelCorpID_0Corel-Layer"/>
  <path class="fil0" d="M90.89 39.96c3.97,0 8.55,-1.21 12.72,-1.21 4.17,0 8.74,1.21 12.71,1.21l0 256.72 -25.43 0 0 -256.72zm9.75 -39.96l5.07 0c6.47,0.62 12.95,3.61 17.76,9.2 4.81,5.6 6.18,10.91 6.18,21.07 9.15,4.39 13.55,4.79 23.48,13.46 5.38,4.7 9.24,8.42 13.55,14.3 1.39,1.89 2.38,3.52 3.57,5.51 4.19,7 8.46,17 10.01,26.92 1.57,9.97 0.85,24.25 0.85,35.48l20.85 15.48c10.86,8.03 2.07,13.58 -0.87,13.58 -4.32,0 -6,-2.23 -9.6,-4.93l-43.59 -32.7c-2.37,-1.77 -5.54,-3.26 -5.54,-7.18 0,-3.8 1.65,-6.49 5.67,-7.04 4.1,-0.56 14.07,8.67 19.77,12.49 0,-18.76 0.76,-29.03 -9.05,-45.45 -3.35,-5.61 -7.57,-10.56 -12.29,-14.96 -3,-2.78 -12.59,-9.45 -16.81,-10.44l0 174.38 56.31 0c28.82,0 26.79,39.35 1.82,39.35l-6.66 0 0 45.41c0,3.46 -2.65,5.66 -5.59,6.06l-1.93 0c-3.02,-0.42 -5.79,-2.85 -5.79,-7.87l0 -43.59 -38.15 0 0 38.75c0,6.46 -5.69,12.71 -12.11,12.71l-27.85 0c-4.76,0 -8.95,-3.55 -10.62,-6.94 -2.16,-4.41 -1.49,-9.9 -1.49,-16.07l0 -242.19c-4.44,1.04 -11.26,6.17 -14.8,8.81 -11.79,8.79 -23.35,29.03 -23.35,45.68l0 94.46 7.27 0c9.73,0 18.16,9.56 18.16,17.56 0,7.52 -0.42,8.54 -4.84,15.13 2.44,1.79 4.84,7.06 4.84,11.5 0,8.18 -0.73,7.78 -4.84,13.93 4.11,6.15 4.84,5.74 4.84,13.93 0,10.47 -9.51,18.77 -21.19,18.77 -13.62,0 -28.79,2.06 -37.09,-5.3 -9.04,-8 -7.86,-18.15 -1.66,-27.4 -4.34,-6.48 -6.8,-12.56 -3.13,-20.68 0.97,-2.15 2.04,-3.3 3.13,-5.35 -1.42,-2.12 -2.25,-2.75 -3.4,-5.69 -2.85,-7.28 -1.07,-15.2 3.84,-20.52 6.19,-6.7 13.31,-5.89 20.75,-5.89l0 -94.46c0,-16.15 8.99,-35.15 16.53,-44.02 7.13,-8.39 14.82,-15.57 24.83,-20.57l10.1 -4.43c0,-12.81 2.26,-17.92 9.83,-24.69 3.59,-3.21 8.28,-5.11 13.24,-5.59zm-87.25 264.59c0,-3.04 3.01,-6.06 6.06,-6.06l26.04 0c8.14,0 8.57,12.72 -1.21,12.72l-24.22 0c-3.57,0 -6.66,-2.89 -6.66,-6.66zm174.38 -19.37l-58.13 0 0 -12.72 57.52 0c3.57,0 6.66,2.89 6.66,6.66 0,3.04 -3.01,6.06 -6.05,6.06zm-174.38 -6.06c0,-4.18 3.43,-6.66 6.66,-6.66l24.22 0c9.78,0 9.35,12.72 1.21,12.72l-26.04 0c-3.04,0 -6.06,-3.01 -6.06,-6.06zm0 -26.04c0,-3.06 2.19,-6.06 5.45,-6.06l27.25 0c7.31,0 7.31,12.11 0,12.11l-27.25 0c-3.26,0 -5.45,-3 -5.45,-6.06zm77.5 -186.49c0,-13.16 12.89,-15.41 18.76,-12.09 4.27,2.41 6.67,6.52 6.67,12.09 -3.74,0 -9.04,-1.25 -12.71,-1.25 -3.68,0 -8.97,1.25 -12.72,1.25z"/>
 </g>
</svg>
