<?xml version="1.0" encoding="utf-8"?>
<!-- Generator: Adobe Illustrator 22.1.0, SVG Export Plug-In . SVG Version: 6.00 Build 0)  -->
<svg version="1.1" id="Layer_1" xmlns="http://www.w3.org/2000/svg" xmlns:xlink="http://www.w3.org/1999/xlink" x="0px" y="0px"
	 viewBox="0 0 512 512" style="enable-background:new 0 0 512 512;" xml:space="preserve">
<style type="text/css">
	.st0{fill:#22589A;}
</style>
<g transform="translate(0.000000,512.000000) scale(0.100000,-0.100000)">
	<path class="st0" d="M361,3829C59,3523-2,3456,6,3442c6-9,170-172,365-362l354-347l358,27c197,15,360,29,362,32c3,3,8,162,11,354
		l6,349l-359,349c-198,193-364,351-369,352C729,4198,561,4032,361,3829z M749,3684c12-28,7-44-13-44c-22,0-96-59-116-93
		c-28-45-25-89,6-126c35-42,81-41,209,4c114,40,144,42,201,16c100-45,135-162,81-267c-16-31-16-31,23-69c38-37,38-38,22-61l-17-23
		l-42,41l-42,41l-32-27c-29-24-100-66-113-66c-3,0-12,13-20,29l-15,29l53,26c105,52,157,140,123,212c-34,70-107,79-229,28
		c-35-15-90-29-123-31c-51-4-65-2-95,19c-78,53-103,148-60,228l19,35l-40,41l-40,40l21,19c20,18,21,18,53-13c18-18,36-32,41-32
		c4,0,26,13,49,29c38,26,62,38,78,40C734,3710,742,3698,749,3684z"/>
	<path class="st0" d="M2150,3657c-90-31-150-68-230-143c-156-148-268-372-322-647l-22-108l-68-45c-93-62-170-151-224-259
		c-72-147-88-220-88-420c0-144,4-182,22-248c30-109,68-189,129-275l53-73v-260V920h340h340v150v150h1080h1080v-150V920h335h335v261
		v261l33,38c119,140,177,323,177,558c0,197-41,350-130,485c-51,78-145,172-214,212c-41,24-43,27-54,97c-6,40-23,113-37,162
		c-90,309-244,529-440,629c-119,59-73,57-1094,57l-936-1L2150,3657z M4123,3448c113-53,239-202,305-361c30-70,85-247,80-253
		c-2-1-24,0-49,3l-46,5l-11,66c-20,119-94,227-196,287c-177,104-428,49-541-117c-37-56-75-160-75-209v-29h-879c-484,0-886-3-895-6
		c-13-5-13,0-5,33c71,271,192,470,340,561c85,52,76,51,1029,49l885-2L4123,3448z M4120,3075c73-37,127-113,144-202l6-33h-271h-270
		l7,38C3769,3061,3957,3158,4120,3075z M1975,2266c28-12,67-41,87-64c35-39,68-119,68-167s-32-124-70-167c-155-177-441-67-441,170
		C1619,2218,1812,2342,1975,2266z M4546,2266c84-39,154-144,154-231c0-48-32-124-70-167c-154-176-441-67-441,167
		C4189,2220,4379,2344,4546,2266z M3960,2150c25-25,25-41-1-74l-20-26h-778c-687,0-779,2-799,16c-26,18-29,60-5,86
		c15,17,53,18,800,18C3927,2170,3940,2170,3960,2150z M3960,1920c26-26,25-46-5-75l-24-25h-773c-684,0-776,2-796,16
		c-26,18-29,60-5,86c15,17,53,18,800,18C3927,1940,3940,1940,3960,1920z"/>
</g>
</svg>
