<svg xmlns="http://www.w3.org/2000/svg" width="27.06" height="25.256" viewBox="0 0 27.06 25.256">
  <defs>
    <style>
      .cls-1 {
        fill: #003e72;
      }
    </style>
  </defs>
  <g id="Loan-Real_Estate" data-name="Loan-Real Estate" transform="translate(-2 -4)">
    <path id="Path_77" data-name="Path 77" class="cls-1" d="M26.766,26.13A2.255,2.255,0,0,0,24.1,24.34V16.364l.809.809A1.408,1.408,0,0,0,26.9,15.182l-2.8-2.8V6.706a.9.9,0,0,0,.9-.9V4.9a.9.9,0,0,0-.9-.9h-4.51a.9.9,0,0,0-.9.9v.9a.9.9,0,0,0,.9.9V7.872l-3.1-3.1a1.385,1.385,0,0,0-1.913,0L4.162,15.182a1.408,1.408,0,0,0,1.991,1.991l.809-.809v9.457A1.8,1.8,0,0,0,3.8,27a1.8,1.8,0,0,0-1.8,1.8.451.451,0,0,0,.451.451H28.609a.451.451,0,0,0,.451-.451,2.711,2.711,0,0,0-2.294-2.675ZM19.589,4.9H24.1v.9h-4.51Zm.9,1.8H23.2V11.48L20.491,8.774ZM5.515,16.535A.506.506,0,0,1,4.8,15.82L15.211,5.408a.451.451,0,0,1,.638,0L26.261,15.82a.507.507,0,0,1,0,.715.518.518,0,0,1-.715,0L16.487,7.476a1.353,1.353,0,0,0-1.913,0Zm9.7-8.421a.451.451,0,0,1,.638,0L23.2,15.462v9.3a2.245,2.245,0,0,0-.9,1.792V26.6a2.258,2.258,0,0,0-1.754,1.759H9.627a2.712,2.712,0,0,0-1.763-2.1V15.462ZM3.023,28.354A.9.9,0,0,1,4.2,28a.451.451,0,0,0,.6-.6.889.889,0,0,1-.1-.395.9.9,0,0,1,1.749-.295.451.451,0,0,0,.444.3A.232.232,0,0,0,6.961,27a1.808,1.808,0,0,1,1.747,1.353Zm18.446,0a1.343,1.343,0,0,1,1.248-.9c.015,0,.061.007.076.007a.451.451,0,0,0,.454-.566,1.336,1.336,0,0,1-.05-.343,1.353,1.353,0,1,1,2.706,0,.451.451,0,0,0,.451.451A1.807,1.807,0,0,1,28.1,28.354Z" transform="translate(0 0)"/>
    <path id="Path_78" data-name="Path 78" class="cls-1" d="M23.157,35.432h4.51a3.161,3.161,0,0,0,3.157-3.157V30.02a5.412,5.412,0,0,0-2.706-4.68v-.732h-.533l.955-2.548a.451.451,0,0,0-.423-.609.868.868,0,0,1-.451-.166,1.707,1.707,0,0,0-.9-.285,1.377,1.377,0,0,0-1.016.6c-.112.126-.26.3-.337.3s-.225-.171-.337-.3a1.377,1.377,0,0,0-1.016-.6,1.709,1.709,0,0,0-.9.285.868.868,0,0,1-.451.166.451.451,0,0,0-.423.609l.955,2.548h-.533v.732A5.412,5.412,0,0,0,20,30.02v2.255A3.161,3.161,0,0,0,23.157,35.432Zm.151-13.209a3.03,3.03,0,0,0,.3-.156.868.868,0,0,1,.451-.166c.077,0,.226.171.337.3a1.377,1.377,0,0,0,1.016.6,1.379,1.379,0,0,0,1.016-.6c.111-.126.26-.3.337-.3a.868.868,0,0,1,.451.166,3.029,3.029,0,0,0,.3.156l-.892,2.384H24.2ZM20.9,30.02a4.515,4.515,0,0,1,2.8-4.171,1.808,1.808,0,0,0-.095.563v.451h.9v-.451a.9.9,0,1,1,1.8,0v.451h.9v-.451a1.808,1.808,0,0,0-.095-.563,4.515,4.515,0,0,1,2.8,4.171v2.255a2.258,2.258,0,0,1-2.255,2.255h-4.51A2.258,2.258,0,0,1,20.9,32.275Z" transform="translate(-9.882 -9.333)"/>
    <rect id="Rectangle_1117" data-name="Rectangle 1117" class="cls-1" height="2.579" transform="translate(18.969 20.067)"/>
    <rect id="Rectangle_1118" data-name="Rectangle 1118" class="cls-1" height="2.579" transform="translate(12.092 20.067)"/>
    <path id="Path_79" data-name="Path 79" class="cls-1" d="M30.255,40.059h-.9a.451.451,0,0,1-.451-.451H28a1.353,1.353,0,0,0,1.353,1.353v.451h.9v-.451a1.353,1.353,0,0,0,0-2.706h-.9a.451.451,0,1,1,0-.9h.9a.451.451,0,0,1,.451.451h.9a1.353,1.353,0,0,0-1.353-1.353V36h-.9v.451a1.353,1.353,0,1,0,0,2.706h.9a.451.451,0,0,1,0,.9Z" transform="translate(-14.274 -17.568)"/>
  </g>
</svg>
