<svg xmlns="http://www.w3.org/2000/svg" width="27.828" height="30" viewBox="0 0 27.828 30">
  <defs>
    <style>
      .cls-1 {
        fill: #003e72;
      }
    </style>
  </defs>
  <path id="agenda" class="cls-1" d="M10.9,0A3.812,3.812,0,0,0,8.379.909,2.447,2.447,0,0,0,7.515,3H7.5V27.479A2.871,2.871,0,0,0,10.618,30h24.71V0ZM8.737,27.479V5a3.576,3.576,0,0,0,1.855.5V29A1.725,1.725,0,0,1,8.737,27.479ZM34.091,29H11.829V5.5h1.855V18.1a.786.786,0,0,0,.68.722,1.18,1.18,0,0,0,.252.028c.009,0,.018,0,.027,0,.028,0,.054-.006.082-.008a1.072,1.072,0,0,0,.185-.033c.03-.008.058-.017.085-.028a.95.95,0,0,0,.163-.08c.022-.014.045-.025.066-.04a.8.8,0,0,0,.181-.173l2.608-3.514,2.608,3.514a1,1,0,0,0,.959.344c.028,0,.055,0,.083-.007a.787.787,0,0,0,.68-.722V5.5h11.75V29ZM21.191,4.741l0,0-.085.137V4.9l-.062.115.062.076v12.1l-3.092-4.167-3.092,4.167V5.118l1-1.618h6.038ZM22.724,4.5l1.237-2h-8.8l-1.237,2H11.032A2.163,2.163,0,0,1,8.749,2.93,1.533,1.533,0,0,1,9.3,1.579,2.422,2.422,0,0,1,10.9,1h23.19v.5H31a.568.568,0,0,0-.618.5A.568.568,0,0,0,31,2.5h3.092V3H31.618A.568.568,0,0,0,31,3.5a.568.568,0,0,0,.618.5h2.474v.5Z" transform="translate(-7.5)"/>
</svg>
