<svg xmlns="http://www.w3.org/2000/svg" width="28" height="30" viewBox="0 0 28 30">
  <g id="policeman" transform="translate(-0.094 0.001)">
    <path id="Path_270" data-name="Path 270" d="M20.371,18.509a7.251,7.251,0,0,0,.564-1.987,2.7,2.7,0,0,0-.3-5.367.379.379,0,0,0,0,.757A1.9,1.9,0,0,1,22.5,13.661,1.928,1.928,0,0,1,21,15.748c0-.072.005-.144.005-.217V13.522a.367.367,0,1,0-.733,0v2.009a6.29,6.29,0,0,1-6.176,6.382,5.94,5.94,0,0,1-1.973-.336.357.357,0,0,0-.368.067.386.386,0,0,0-.12.366.374.374,0,0,0,.253.284,6.7,6.7,0,0,0,1.153.29L10.8,24.18,9.564,20.9a6.9,6.9,0,0,0,1,.757.36.36,0,0,0,.5-.131.386.386,0,0,0-.127-.519A6.472,6.472,0,0,1,7.918,15.53V10.814a17.764,17.764,0,0,0,6.176.966.379.379,0,0,0,0-.757A14.936,14.936,0,0,1,7.7,9.9h0c-.561-.294-.866-.606-.866-.881a1.609,1.609,0,0,1,.247-.7,29.645,29.645,0,0,0,7.02.651,29.531,29.531,0,0,0,7.018-.656,1.618,1.618,0,0,1,.249.7c0,.74-2.116,1.695-5.536,1.947a.379.379,0,0,0,.025.757h.026c2.868-.212,6.216-1.046,6.216-2.7a2.143,2.143,0,0,0-.261-.912l.034-.011c1.62-.552,2.441-1.363,2.441-2.406C24.307,2.941,18.313,0,14.094,0A14.209,14.209,0,0,0,8.988,1.093a.375.375,0,0,0-.235.3.385.385,0,0,0,.134.357.358.358,0,0,0,.367.054A13.487,13.487,0,0,1,14.094.755c3.986,0,9.48,2.856,9.48,4.929,0,.848-1.055,1.386-1.938,1.687-.131.045-.27.087-.412.128a.1.1,0,0,0-.023.007,27.458,27.458,0,0,1-7.107.705,27.083,27.083,0,0,1-7.086-.7A.339.339,0,0,0,6.955,7.5C5.167,6.982,4.732,6.307,4.641,5.92c-.223-.944.985-2.281,3.079-3.407A.385.385,0,0,0,7.876,2a.361.361,0,0,0-.494-.161C4.9,3.174,3.613,4.765,3.929,6.1c.2.861,1.017,1.53,2.426,2a2.143,2.143,0,0,0-.26.91,1.8,1.8,0,0,0,1.09,1.447v.725a2.7,2.7,0,0,0,.07,5.337,7.312,7.312,0,0,0,.789,2.429s0,.009,0,.013L10.284,24.9a.372.372,0,0,0,.234.225.357.357,0,0,0,.316-.05l1.258-.9.557,1.052-.359,2.8a.377.377,0,0,0,.315.424.334.334,0,0,0,.049,0,.371.371,0,0,0,.363-.329l.332-2.59h1.492l.475,3.706H.826V27.617a8.423,8.423,0,0,1,5.562-7.991.382.382,0,0,0,.223-.477.364.364,0,0,0-.457-.24,9.179,9.179,0,0,0-6.06,8.71v2A.373.373,0,0,0,.46,30H25.769a.379.379,0,0,0,0-.757H16.054l-.514-4.011.557-1.052,1.258.9a.358.358,0,0,0,.315.05A.372.372,0,0,0,17.9,24.9l2.136-5.67a8.362,8.362,0,0,1,7.32,8.386v2a.367.367,0,1,0,.733,0v-2a9.125,9.125,0,0,0-7.723-9.109ZM5.679,13.847a1.924,1.924,0,0,1,1.507-1.9v3.581c0,.072.005.145.007.217a1.924,1.924,0,0,1-1.514-1.9Zm9.266,10.932h-1.7L12.7,23.747l1.4-.994,1.4,1Zm2.446-.6-2.237-1.594a6.789,6.789,0,0,0,3.466-1.668Zm0,0" fill="#22598a"/>
    <path id="Path_271" data-name="Path 271" d="M156.252,25.185a.368.368,0,0,0-.349-.262l-1.745,0-.536-1.716a.363.363,0,0,0-.7,0l-.536,1.716-1.745,0a.39.39,0,0,0-.349.262.386.386,0,0,0,.134.424l1.413,1.057L151.3,28.38a.386.386,0,0,0,.133.424.357.357,0,0,0,.432,0l1.409-1.063,1.409,1.063a.357.357,0,0,0,.432,0,.386.386,0,0,0,.133-.424l-.542-1.714,1.413-1.056A.386.386,0,0,0,156.252,25.185Zm-2.193,1.03a.386.386,0,0,0-.133.424l.273.861-.708-.534a.357.357,0,0,0-.432,0l-.708.534.273-.861a.386.386,0,0,0-.133-.424l-.71-.532.877,0a.367.367,0,0,0,.349-.262l.269-.862.269.862a.367.367,0,0,0,.349.262l.877,0Zm0,0" transform="translate(-139.18 -21.212)" fill="#22598a"/>
    <path id="Path_272" data-name="Path 272" d="M249.293,354.793a1.075,1.075,0,0,0,0,2.148h2.576a1.075,1.075,0,0,0,0-2.148Zm2.882,1.074a.312.312,0,0,1-.307.317h-2.576a.317.317,0,0,1,0-.634h2.576A.312.312,0,0,1,252.175,355.867Zm0,0" transform="translate(-229.976 -327.928)" fill="#22598a"/>
  </g>
</svg>
