<svg xmlns="http://www.w3.org/2000/svg" width="35" height="25" viewBox="0 0 35 25">
  <g id="group" transform="translate(0 -107.05)">
    <g id="Group_336" data-name="Group 336" transform="translate(0 107.05)">
      <path id="Path_285" data-name="Path 285" d="M340.6,169.129v3.417a2.815,2.815,0,0,0,.543,1.7v1.16a.727.727,0,1,0,1.415,0v-1.577a.983.983,0,0,0-.314-.743.692.692,0,0,1-.229-.535v-3.417a1.993,1.993,0,0,1,1.715-2.175h.579a1.993,1.993,0,0,1,1.715,2.175v3.417a.692.692,0,0,1-.229.535.958.958,0,0,0-.314.743v3.29a1.114,1.114,0,0,0,.464.943,20.639,20.639,0,0,1,3.694,3,.854.854,0,0,1,.214.589v1.441h-4.958a.923.923,0,0,0,0,1.795h5.665a.816.816,0,0,0,.707-.9v-2.339a2.843,2.843,0,0,0-.736-1.976,22.774,22.774,0,0,0-3.636-3.019v-2.42a2.815,2.815,0,0,0,.543-1.7V169.12c0-2.194-1.408-3.97-3.129-3.97h-.579C342.007,165.159,340.6,166.936,340.6,169.129Z" transform="translate(-316.266 -159.884)" fill="#22598a"/>
      <path id="Path_286" data-name="Path 286" d="M.707,184.974H6.458a.923.923,0,0,0,0-1.795H1.415v-1.441a.871.871,0,0,1,.214-.589,19.955,19.955,0,0,1,3.694-3,1.1,1.1,0,0,0,.464-.943v-3.29a.983.983,0,0,0-.314-.743.692.692,0,0,1-.229-.535V169.22a1.993,1.993,0,0,1,1.715-2.175h.579a1.993,1.993,0,0,1,1.715,2.175v3.417a.692.692,0,0,1-.229.535.958.958,0,0,0-.314.743v1.65a.816.816,0,0,0,.707.9.816.816,0,0,0,.707-.9v-1.233a2.815,2.815,0,0,0,.543-1.7V169.22c0-2.194-1.407-3.97-3.129-3.97H6.959c-1.729,0-3.129,1.786-3.129,3.97v3.417a2.815,2.815,0,0,0,.543,1.7v2.42a21.976,21.976,0,0,0-3.636,3.018A2.876,2.876,0,0,0,0,181.747v2.33A.816.816,0,0,0,.707,184.974Z" transform="translate(0 -159.974)" fill="#22598a"/>
      <path id="Path_287" data-name="Path 287" d="M130.3,116.341v-4.414c0-2.692-1.722-4.877-3.844-4.877h-.75c-2.122,0-3.844,2.185-3.844,4.877v4.414a3.31,3.31,0,0,0,.7,2.085v3.4a28.225,28.225,0,0,0-4.787,3.952,3.387,3.387,0,0,0-.872,2.348v3.028a.816.816,0,0,0,.707.9h16.932a.816.816,0,0,0,.707-.9v-3.028a3.387,3.387,0,0,0-.872-2.348,28.691,28.691,0,0,0-4.787-3.952v-3.4A3.255,3.255,0,0,0,130.3,116.341Zm3.186,10.823a1.386,1.386,0,0,1,.357.961v2.13H118.322v-2.13a1.386,1.386,0,0,1,.357-.961,26.794,26.794,0,0,1,4.815-3.925,1.162,1.162,0,0,0,.486-.979V118a.983.983,0,0,0-.314-.743,1.192,1.192,0,0,1-.386-.906v-4.414c0-1.7,1.093-3.082,2.429-3.082h.75c1.343,0,2.429,1.387,2.429,3.082v4.414a1.178,1.178,0,0,1-.386.906.958.958,0,0,0-.314.743v4.26a1.15,1.15,0,0,0,.486.979A27.577,27.577,0,0,1,133.482,127.164Z" transform="translate(-108.548 -107.05)" fill="#22598a"/>
    </g>
  </g>
</svg>
