<?xml version="1.0" encoding="UTF-8"?>
<!DOCTYPE svg PUBLIC "-//W3C//DTD SVG 1.1//EN" "http://www.w3.org/Graphics/SVG/1.1/DTD/svg11.dtd">
<!-- Creator: CorelDRAW 2018 (64-Bit) -->
<svg xmlns="http://www.w3.org/2000/svg" xml:space="preserve" width="0.31in" height="0.31in" version="1.1" style="shape-rendering:geometricPrecision; text-rendering:geometricPrecision; image-rendering:optimizeQuality; fill-rule:evenodd; clip-rule:evenodd"
viewBox="0 0 310 310"
 xmlns:xlink="http://www.w3.org/1999/xlink">
 <defs>
  <style type="text/css">
   <![CDATA[
    .fil0 {fill:#275998}
   ]]>
  </style>
 </defs>
 <g id="Layer_x0020_1">
  <metadata id="CorelCorpID_0Corel-Layer"/>
  <g id="_1024680784">
   <path class="fil0" d="M13.32 291.23c0,-3.7 1.57,-6.66 5.45,-6.66l272.46 0c7.31,0 7.31,12.11 0,12.11l-272.46 0c-2.99,0 -5.45,-2.46 -5.45,-5.45zm-13.32 0.87l0 -2.5c0.57,-9.22 7.37,-17.9 17.55,-18.35 11.4,-0.51 24.18,0.01 35.73,0.01 1.86,-3.5 16.14,-41.72 16.35,-44.2 -5.01,-1.17 -14.49,-7.76 -18.26,-10.8 -4.95,-4 -10.1,-9.94 -13.71,-15.35 -5.51,-8.26 -11.05,-21.22 -11.61,-31.99 -0.57,-11.03 -0.65,-2.21 -0.04,-13.32 1.72,-31.3 26.48,-56.7 53.3,-62.95l-7.49 -23.39c-0.78,-2.33 -2,-5.13 -2.19,-7.5 -4.6,0.11 -7.7,3.03 -12.11,3.03 -2.95,0 -6.06,-3.42 -6.06,-6.66 0,-7.72 -1.81,-19.37 6.06,-19.37l39.96 0c5.6,0 8.98,8.57 2.55,12.24 -1.57,0.9 -3.87,1.42 -5.81,2.06 -3.17,1.06 -9.56,3.62 -12.48,3.86l5.53 16.87c1.63,4.85 3.27,12.05 5.37,16.43 16.61,0 30.97,2.03 47.12,3.73 4.45,0.47 10.22,1.29 14.69,1.66l46.02 4.85c3.24,0.27 4.64,0.42 7.77,0.7 2.45,0.22 4.36,0.97 6.71,1.16 3,-12.86 12.48,-40.39 16.48,-54.97 4.19,-15.32 9.88,-3.34 33.77,-14.06 6.06,-2.72 9.59,-5.1 14.71,-8.9 4.7,-3.49 8.04,-7.32 11.59,-12.02 4.34,-5.76 6.82,-12.37 11.24,-12.37 4.09,0 7.26,1.75 7.26,6.06 0,4.04 -2.44,6.48 -4.96,10.18 -3.59,5.29 -8.13,10.84 -12.74,15.11 -7.17,6.63 -16.83,12.39 -25.98,15.8 -3.53,1.31 -6.99,2.2 -10.8,3.13 -3.61,0.87 -7.93,0.96 -11.52,1.8l-16.35 54.49c2.34,1.24 4.56,2.13 6.67,3.63 14.06,9.97 24.21,25.05 24.21,44.2 0,16.22 0.72,29.62 -9.24,43.43 -4.11,5.7 -13.92,16.2 -20.43,17.72 0.24,2.89 11.34,23.89 13.52,28.26 4.64,9.28 8.97,18.47 13.72,27.44 11.81,0 23.98,-0.29 35.74,-0.02 5.44,0.13 9.72,2.76 12.57,5.6 4.93,4.93 5.57,9.33 5.57,15.61 0,8.41 -9.15,17.56 -17.56,17.56l-274.88 0c-4.69,0 -9.81,-3.32 -12.28,-5.88 -3.34,-3.46 -5.01,-7.72 -5.28,-12.02zm174.98 -66.86l36.08 -3.88c1.9,-0.3 3.34,-0.82 5.09,-0.96l25.06 50.74 -173.4 0.11c1.25,-5.35 14.25,-36.54 14.53,-39.96 3.65,0.08 5.88,1.21 10.3,1.21 22.6,0 31.46,-2.47 52.12,-4.19 5.09,-0.42 9.39,-1.26 14.48,-1.26 3,4.48 12.2,14.91 13.93,18.17 -10.87,5.75 -3.31,13.32 1.21,13.32l26.04 0c2.46,0 4.67,-1.8 5.59,-3.52 1.2,-2.24 1.09,-4.59 -0.22,-6.67 -2.76,-4.37 -8.85,-3.13 -15.66,-3.13 -1.13,-2.13 -2.06,-3.05 -3.56,-4.93 -3.04,-3.81 -9.44,-10.97 -11.58,-15.06zm-136.23 -63.57c0,-7.77 2.46,-17.93 5.04,-23.42 4.53,-9.67 10.75,-17.71 19.18,-23.81 25.09,-18.16 51.96,-8.59 81.11,-6.63 11.9,0.8 31.64,3.72 44.28,4.77 7.05,0.59 15.58,1.26 21.93,2.29 6.84,1.11 13.14,3.76 17.73,7.1 18.02,13.11 17.2,27.57 17.2,46.37 0,16.39 -10.08,29.8 -24.01,36.54 -8.31,4.02 -27.94,4.87 -39.13,6.28l-13.76 1.38 0 -23.61c0,-10.54 -12.31,-10.24 -13.28,-2.99 -0.87,6.45 -0.04,20.55 -0.04,27.81 -3.94,0.92 -8.46,0.93 -12.98,1.55 -14.65,2.04 -34.07,3.9 -48.78,3.9 -8.24,0 -16.28,-2.98 -22,-5.85 -19.33,-9.69 -32.49,-30.01 -32.49,-51.67z"/>
   <path class="fil0" d="M64.78 162.26c0,-17.95 13.57,-32.69 30.28,-32.69 10.59,0 18.4,2.65 25,9.52 23.71,24.69 -3.17,65.7 -36.08,51.82 -3.56,-1.5 -6.84,-3.86 -9.35,-6.39 -5.02,-5.04 -9.83,-12.49 -9.83,-22.26zm-13.32 -1.81c0,16.89 7.8,30.02 19.37,38.15 1.85,1.3 5.13,3.29 7.27,4.24 43.54,19.33 86.17,-33.24 51.62,-72.81 -6.23,-7.14 -20.04,-13.78 -29.82,-13.78 -11.73,0 -19.99,1.46 -29.67,8.47 -11.05,8 -18.76,21.74 -18.76,35.73z"/>
  </g>
 </g>
</svg>
