<svg xmlns="http://www.w3.org/2000/svg" width="29.261" height="28.138" viewBox="0 0 29.261 28.138">
  <g id="surface1" transform="translate(84.911 92.999)">
    <path id="Path_252" data-name="Path 252" d="M.638,7.773a1.075,1.075,0,0,0-.019.168V9.1a1.152,1.152,0,0,0,.79,1.071v1.7a1.1,1.1,0,0,0,1.082,1.066v9.84a1.1,1.1,0,0,0-1.082,1.066v1.7a1.165,1.165,0,0,0-.79,1.081v1.132a.4.4,0,0,0,.406.382H28.4a.4.4,0,0,0,.406-.382V26.624a1.164,1.164,0,0,0-.79-1.081V23.835a1.1,1.1,0,0,0-1.082-1.066V12.939a1.1,1.1,0,0,0,1.082-1.066v-1.7A1.152,1.152,0,0,0,28.8,9.1V7.949a1.05,1.05,0,0,0-.019-.168.414.414,0,0,0,.533-.194.373.373,0,0,0-.205-.5L14.9.045a.428.428,0,0,0-.379,0L.305,7.077a.372.372,0,0,0-.17.517A.417.417,0,0,0,.638,7.773Zm1.583,3.06v-.589H6.9v.584Zm10.422,2.109v9.837a1.1,1.1,0,0,0-1.082,1.066v1.627H7.708V23.845a1.1,1.1,0,0,0-1.082-1.066v-9.84a1.1,1.1,0,0,0,1.082-1.066V10.244h3.848v1.627a1.1,1.1,0,0,0,1.082,1.068Zm-.271-2.109v-.589h4.681v.584Zm10.422,2.109v9.837a1.1,1.1,0,0,0-1.082,1.066v1.627H17.86V23.845a1.1,1.1,0,0,0-1.082-1.066v-9.84a1.1,1.1,0,0,0,1.082-1.066V10.244h3.847v1.627a1.1,1.1,0,0,0,1.082,1.068Zm-.271-2.109v-.589H27.2v.584ZM27.2,24.888v.584H22.519v-.584Zm-10.151,0v.584H12.367v-.584Zm-4.01-12.706h-.352a.316.316,0,0,1-.325-.306V11.6h4.681v.278a.316.316,0,0,1-.325.306Zm2.925.765v9.827H13.449V12.947ZM13.044,23.539h3.68a.316.316,0,0,1,.325.306v.278H12.367v-.278a.316.316,0,0,1,.325-.306ZM6.9,24.888v.584H2.216v-.584Zm-4.681-13V11.6H6.9v.278a.316.316,0,0,1-.325.306H2.532a.315.315,0,0,1-.317-.309Zm3.6,1.071v9.819H3.3V12.947Zm-3.6,10.9a.316.316,0,0,1,.325-.306H6.572a.316.316,0,0,1,.325.306v.278H2.216ZM27.99,26.639v.749H1.426v-.749a.408.408,0,0,1,.419-.4H27.57a.409.409,0,0,1,.419.388Zm-.79-2.787v.278H22.519v-.278a.316.316,0,0,1,.325-.306h4.04a.316.316,0,0,1,.317.3Zm-3.6-1.071V12.947H26.12v9.827Zm3.6-10.9a.316.316,0,0,1-.325.306H22.846a.316.316,0,0,1-.325-.306V11.6H27.2ZM14.708.81,26.794,6.8H2.621ZM1.426,7.949a.4.4,0,0,1,.406-.382H27.584a.4.4,0,0,1,.406.382V9.107a.4.4,0,0,1-.406.382H1.831a.4.4,0,0,1-.406-.382Zm0,0" transform="translate(-85 -93)" fill="#22589a"/>
  </g>
</svg>
