<svg id="Capa_1" data-name="Capa 1" xmlns="http://www.w3.org/2000/svg" viewBox="0 0 438.53 475.1"><defs><style>.cls-1{fill:#22589a;}</style></defs><title>thumbs-up</title><path class="cls-1" d="M424.55,265.53a82.59,82.59,0,0,0,14-46.54q0-29.4-21.69-51.11t-51.39-21.7H315.2q13.69-28.26,13.71-54.81,0-33.42-10-53.11a62.73,62.73,0,0,0-29.12-29Q270.65,0,246.68,0,232.1,0,221,10.57q-12.27,12-17.7,30.83t-8.71,36.12q-3.27,17.27-10.13,24.41-14,15.13-30.55,36.55-28.84,37.4-39.12,44.25H36.55A35.27,35.27,0,0,0,10.7,193.44,35.24,35.24,0,0,0,0,219.28V402a35.24,35.24,0,0,0,10.7,25.84,35.25,35.25,0,0,0,25.85,10.71h82.22q6.27,0,39.39,11.42,35.13,12.28,61.82,18.7a230,230,0,0,0,54.1,6.43h36.83q40.26,0,64.81-23T400,389.44q17.13-22,17.13-50.82a85.55,85.55,0,0,0-.86-12.28,82,82,0,0,0,10.86-41.11A74.68,74.68,0,0,0,424.55,265.53ZM67.67,396.58a17.92,17.92,0,0,1-25.7,0,17.94,17.94,0,0,1,0-25.7,17.94,17.94,0,0,1,25.7,0,17.94,17.94,0,0,1,0,25.7ZM395.86,242.42q-6.14,13.13-15.27,13.41,4.28,4.86,7.13,13.57a51,51,0,0,1,2.85,15.84q0,19.69-15.12,34a39.49,39.49,0,0,1,5.14,19.7,48.11,48.11,0,0,1-5,21q-5,10.41-13.56,15a97.62,97.62,0,0,1,1.42,16q0,47.68-54.82,47.68H274.1q-37.41,0-97.65-20.84c-1-.38-3.71-1.38-8.28-3L158,411.14q-3.28-1.15-10-3.29t-10.85-3.14q-4.14-1-9.42-1.85a56.57,56.57,0,0,0-9-.86h-9.13V219.29h9.13a24.53,24.53,0,0,0,10.14-2.57A48.65,48.65,0,0,0,140.33,209q5.85-5.14,11-10.14a160.44,160.44,0,0,0,11.42-12.56q6.28-7.58,9.86-12.13t9-11.71q5.41-7.14,6.56-8.57,15.71-19.41,22-26,11.7-12.27,17-31.26t8.71-35.83Q239.25,44,246.68,36.56q27.4,0,36.55,13.42t9.13,41.4q0,16.83-13.71,45.82T265,182.74h100.5q14.28,0,25.41,11T402,219.28Q402,229.27,395.86,242.42Z"/></svg>