<?xml version="1.0" encoding="UTF-8"?>
<!DOCTYPE svg PUBLIC "-//W3C//DTD SVG 1.1//EN" "http://www.w3.org/Graphics/SVG/1.1/DTD/svg11.dtd">
<!-- Creator: CorelDRAW 2018 (64-Bit) -->
<svg xmlns="http://www.w3.org/2000/svg" xml:space="preserve" width="0.31in" height="0.305157in" version="1.1" style="shape-rendering:geometricPrecision; text-rendering:geometricPrecision; image-rendering:optimizeQuality; fill-rule:evenodd; clip-rule:evenodd"
viewBox="0 0 310 305.16"
 xmlns:xlink="http://www.w3.org/1999/xlink">
 <defs>
  <style type="text/css">
   <![CDATA[
    .fil0 {fill:#275998}
   ]]>
  </style>
 </defs>
 <g id="Layer_x0020_1">
  <metadata id="CorelCorpID_0Corel-Layer"/>
  <g id="_1024957600">
   <path class="fil0" d="M34.51 243.4l210.1 0c6.91,0 12.29,3.48 15.9,7.11 2.43,2.45 3.26,3.22 5.04,6.46 2.96,5.36 2.67,8.53 2.67,14.28 0,11.33 -11.67,23.01 -23.01,23.01l-211.31 0c-14.85,0 -28.78,-17.86 -21.38,-35.31 1.09,-2.57 3.25,-5.93 4.94,-7.77 3.81,-4.17 11,-7.78 17.04,-7.78zm275.49 -31.47l0 88.39c0,1.73 -0.39,2.5 -1.42,3.43 -0.48,0.43 -2.07,1.42 -2.82,1.42l-271.25 0c-5.71,0 -10.17,-1.79 -14,-3.55 -2.04,-0.94 -3.72,-1.91 -5.38,-3.1l-6.57 -6.14c-6.8,-8.61 -8.56,-13.43 -8.56,-25.35 0,-17.84 17.11,-34.51 36.93,-34.51l97.48 0 0 -52.67c0,-2.02 -0.62,-2.58 -1.59,-3.87l-2.65 -2.19c-0.52,1.93 -2.98,5.48 -4.13,7.38 -8.68,14.37 -6.18,14.51 -17.62,16.89 -12.38,2.57 -25.26,5.55 -37.59,8.43 -0.35,4.17 -3.02,9.75 -5.6,11.95 -6.2,5.3 -24.06,7.13 -24.06,-1.06l0 -30.88c0,-3.07 1.76,-4.68 4.15,-5.54 1.89,-0.69 5.59,-1.68 7.48,-2.2 4.96,-1.38 9.78,-2.84 14.48,-4.3 4.85,-1.5 9.52,-2.89 14.38,-4.39 9.92,-3.07 11.57,-1.94 12.12,-6.65 1.33,-11.32 2.73,-22.61 4.14,-33.4 1.22,-9.32 0.16,-27.14 0.16,-37.38 -3.32,0.28 -7.67,2.28 -10.9,3.03 0,6.84 0.45,17.9 -1.61,22.61 -6.91,15.81 -29.88,9.74 -29.88,-5.06 0,-17.42 -2.23,-36.62 13.51,-45.22 3.32,-1.81 26.06,-10.07 31.39,-10.99 2.78,-0.48 2.76,-0.03 4.14,-1.91 -3.07,-0.82 -7.06,-6.85 -8.49,-9.67 -1.61,-3.15 -3.61,-9.79 -3.61,-14.55 0,-3.64 1.87,-10.12 3.02,-12.72 4.35,-9.78 15.57,-18.16 27.25,-18.16 26.46,0 39.33,26.39 28.05,46.82 -1.26,2.28 -2.3,3.39 -3.92,5.16l-4.15 4.33c1.62,2.41 2.39,2.44 3.82,5.87 2.29,5.5 4.68,15.78 7.07,20.77 14.44,0 32.09,-3.6 32.09,16.95 0,6.76 -7.17,13.93 -13.93,13.93l-21.8 0 0 13.32c0,2.3 16.21,33.72 18.57,38.34 2.7,5.28 2.16,4.83 1.07,11.57l-3.81 24.65c-0.62,3.65 -1.63,8.65 -1.91,12.02 4,0.09 9.36,2.63 11.67,4.68 4.57,4.08 5.29,8.38 5.29,14.09l30.88 0c0,-22.5 -1.85,-19.64 11.32,-21.37 4.2,-0.55 10.51,-1.63 15.32,-1.63 0,-3.37 1.01,-9.26 1.55,-12.98l11.77 -89.34c-2.33,1.23 -4.81,2.85 -7.15,4.35 -2.44,1.57 -4.52,2.83 -7.02,4.48 -12.07,7.93 -15.86,11.96 -20.98,3.31 -7.33,-12.37 -14.57,-18.03 -6.61,-23.03l65.12 -40.83c12.03,-7.33 12.25,-9.3 19.22,2.48 10.73,18.15 12.83,13.65 -5.04,25.62l0 119.88c5.8,-0.48 15.03,-2.81 18.11,-1.16 0.16,0.09 0.92,0.62 1.06,0.76 0.61,0.57 0.44,0.31 0.81,1 0.27,0.5 0.46,3.39 0.6,7.89zm-87.79 11.49c0,-2.41 2.7,-1.77 8.48,-2.42 3.16,-0.35 6.68,-0.8 9.74,-1.16 6.52,-0.76 13.43,-1.48 19.51,-2.29l39.78 -4.42 0 81.13 -30.88 0c1.2,-1.78 2.33,-2.57 3.77,-4.71 17.28,-25.86 -1.94,-57.05 -29.8,-57.05l-20.58 0 0 -9.08zm27.24 -15.13c0,-2.54 0.76,-5.98 1.03,-8.05 3.8,-28.96 8.42,-61.16 11.63,-89.48 1.7,-14.95 -0.54,-9.19 16.4,-20.54l0 114.43c-2.55,0 -28.11,3.17 -29.06,3.63zm-194.96 3.63l-2.42 0 0 -21.8 39.12 -11.74c11.45,-3.84 11.7,-1.09 12.95,-12.48 0.35,-3.23 2.31,-20.91 3.03,-22.4l16.35 20.59 -10.7 18.36c-3.28,5.58 -1.89,4.03 -8.91,5.63l-35.66 7.94c-5.46,1.15 -5.65,2.32 -7.33,7.2 -1.35,3.91 -1.65,8.71 -6.43,8.71zm17.56 -95.06c-8.69,0 -5.4,-7.38 -5.44,-15.74 -0.09,-16.88 0.11,-21.75 15.51,-26.87 5.15,-1.71 10.98,-4.06 15.97,-5.22l0 12.11c-7.77,3.73 -20.36,3.39 -21.15,9.73 -1.37,10.98 1.69,25.99 -4.89,25.99zm151.97 -5.45l-4.84 -8.48c1.64,-0.44 6.35,-3.61 7.99,-4.72 2.69,-1.81 5.31,-3.47 8.16,-5.16 13.48,-7.98 38.05,-24.77 49.24,-30.69 1.86,2.78 3.59,5.7 5.45,8.48 -1.83,0.49 -6.48,3.78 -8.36,4.96 -2.87,1.81 -5.35,3.19 -8.24,5.08 -5.6,3.67 -10.75,6.62 -16.34,10.3l-28.57 18.06c-1.66,1.11 -2.43,1.69 -4.49,2.17zm-98.69 -43.59c0,-5.94 8.99,-8.02 11.72,-1.42l7.56 22.72c2,5.74 5.95,4.14 15.84,4.14 6.13,0 15.14,-1.14 15.14,4.84 0,6.91 -8.8,5.45 -15.74,5.45 -7.26,0 -14.53,0 -21.8,0 -1.23,-5.29 -12.72,-31.62 -12.72,-35.72zm-10.9 0c0,4.94 10.08,30.22 12.54,36.51 3.87,9.88 2.14,9.51 12.28,9.51 0,22.57 -0.54,15.88 11.3,39.56 2.14,4.28 3.92,7.83 6.06,12.11 3.59,7.19 3.49,5.04 1.93,14.24 -1.78,10.5 -3.11,21.18 -4.93,32 -1.12,6.63 -1.78,9 4.93,11.17 8.56,2.77 11.6,1.45 11.6,9.59l-25.43 0 0 -56.91c0,-3.19 -13.09,-18.53 -15.13,-21.2l-15.93 -20.41c-4.54,-6.13 -4.69,-3.25 -4.67,-13.5l0 -55.1c1.62,-0.38 1.11,-0.41 2.7,-0.93 1.27,-0.41 2.23,-0.63 3.35,-0.89 -0.16,1.89 -0.61,2.15 -0.61,4.24zm10.9 -16.35c-6.93,0 -10.8,-0.72 -16.22,-6.19 -7.43,-7.52 -7.42,-20.15 0,-28.19 11.43,-12.37 34.94,-5.61 35.48,13.85 0.28,10.07 -8.2,20.53 -19.27,20.53z"/>
   <path class="fil0" d="M237.95 268.83c0,-5.93 9.69,-7.7 9.69,1.21 0,4.36 -9.69,5.92 -9.69,-1.21zm-36.33 4.84c-6.71,0 -6.51,-9.69 0,-9.69 6.5,0 6.5,9.69 0,9.69zm-87.8 -4.84c0,-7.06 9.69,-5.34 9.69,-1.21 0,2.81 -0.02,6.06 -4.84,6.06 -2.93,0 -4.85,-1.91 -4.85,-4.84zm-41.17 0c0,-6.5 9.69,-6.5 9.69,0 0,6.6 -9.69,6.6 -9.69,0zm-36.33 4.84c-6.71,0 -6.51,-9.69 0,-9.69 6.5,0 6.5,9.69 0,9.69zm118.67 -4.84c0,-6.43 10.29,-6.43 10.29,0 0,6.43 -10.29,6.43 -10.29,0zm-10.29 -1.82l0.6 6.66 -11.5 0c1.3,-5.55 0.36,-5.39 0,-9.69l11.5 0c-0.31,1.36 -0.6,1.39 -0.6,3.03zm71.44 -3.03l11.5 0c-1.46,9.9 -0.11,4.72 0,9.69l-10.9 0c0,-3.09 1.61,-5.07 -0.6,-9.69zm-41.17 0l11.5 0c-0.77,9.26 -0.77,0.43 0,9.69l-11.5 0c1.16,-2.07 0.61,-5.46 0.61,-7.87 0,-2.31 0.19,-0.22 -0.61,-1.82zm-70.84 9.69l-11.5 0 0.71 -4.83c0.19,-1.75 -0.66,-2.47 -0.71,-4.86l11.5 0c-1.42,2.95 -1.36,6.85 0,9.69zm-53.28 -9.69l11.5 0 -0.71 4.83c-0.19,1.75 0.66,2.47 0.71,4.86l-11.5 0c1.36,-2.83 1.42,-6.74 0,-9.69zm-30.27 3.63c0,10.35 6.88,16.95 15.74,16.95l206.46 0c21.04,0 20.85,-31.48 -0.6,-31.48l-205.26 0c-9.17,0 -16.35,7.27 -16.35,14.53z"/>
  </g>
 </g>
</svg>
