<?xml version="1.0" encoding="utf-8"?>
<!-- Generator: Adobe Illustrator 22.1.0, SVG Export Plug-In . SVG Version: 6.00 Build 0)  -->
<svg version="1.1" id="Layer_1" xmlns="http://www.w3.org/2000/svg" xmlns:xlink="http://www.w3.org/1999/xlink" x="0px" y="0px"
	 viewBox="0 0 512 512" style="enable-background:new 0 0 512 512;" xml:space="preserve">
<style type="text/css">
	.st0{fill:#22589A;}
</style>
<g transform="translate(0.000000,512.000000) scale(0.100000,-0.100000)">
	<path class="st0" d="M2500,5098c-12-14-20-35-20-58c0-152-134-295-296-315c-38-4-67-14-81-28c-24-22-30-65-13-97
		c11-21,60-40,101-40c53,0,138-40,187-88c58-57,89-121,98-199c8-73,16-87,54-103c24-10,36-10,60,0c38,16,46,30,54,104
		c8,76,56,167,112,213c48,38,129,73,173,73c41,0,90,19,101,40c33,62-5,114-90,125c-162,20-283,140-297,294c-7,75-28,101-83,101
		C2533,5120,2515,5113,2500,5098z M2622,4707l63-63l-62-61l-63-61l-62,61l-63,61l60,62c33,34,61,62,62,63
		C2557,4769,2587,4742,2622,4707z"/>
	<path class="st0" d="M341,4061c-10-10-22-40-26-67c-19-131-103-216-227-231c-64-8-88-30-88-81s26-73,96-83c115-16,196-94,215-209
		c8-48,17-71,35-87c56-51,119-13,134,82c19,118,100,199,216,214c72,10,109,46,100,95c-8,42-35,62-97,70c-67,9-117,35-161,84
		c-38,42-52,78-63,154c-4,33-13,53-28,63C417,4086,364,4084,341,4061z"/>
	<path class="st0" d="M4671,4063c-16-13-24-36-30-79c-11-73-28-108-73-150c-45-43-85-62-147-70s-89-28-97-70c-9-49,28-85,100-95
		c116-15,197-96,216-214c7-45,16-66,35-82c59-52,117-14,134,87c19,115,100,193,215,209c70,10,96,32,96,83s-24,73-88,81
		c-124,15-208,100-227,231c-4,27-16,57-26,67C4755,4085,4699,4086,4671,4063z"/>
	<path class="st0" d="M1287,3740c-91-29-168-89-214-168c-14-24-110-282-213-574l-187-530l-23,93c-26,106-42,144-65,153
		c-9,3-119,6-244,6c-215,0-228-1-249-20c-21-20-22-28-22-220c0-262-24-240,261-240h218l-139-195c-82-116-147-217-160-251
		c-20-55-21-67-18-623l3-566l26-55c14-30,49-80,77-111l52-57V244c0-156,10-186,72-224C493,1,509,0,797,2l302,3l36,35
		c44,42,55,81,55,193v87h1360h1360v-87c0-116,12-153,60-197l40-36h298c279,0,299,1,330,20c62,38,72,68,72,224v138l52,57
		c28,31,63,81,77,111l26,55v575c0,536-1,578-19,623c-10,26-80,136-157,243l-138,194h218c285,0,261-22,261,239c0,263,25,241-272,241
		c-125,0-234-3-243-6c-23-9-39-47-65-153l-23-93l-187,528c-102,291-194,544-204,562c-25,49-81,106-134,140c-102,65-34,62-1356,61
		C1407,3759,1342,3758,1287,3740z M3790,3573c30-16,67-44,82-63c20-25,84-195,217-570l189-535l-244-5c-275-6-279-7-279-80
		c0-75-1-74,317-80l282-5l158-220c87-121,167-238,178-261c19-39,20-59,20-497V800h-680h-680v308c0,252-3,318-16,363
		c-41,140-157,247-302,278c-73,15-891,15-964,0c-106-23-211-96-261-182c-52-89-57-126-57-459V800h-680H390v458c0,457,0,459,23,501
		c12,22,93,140,180,261l158,220h1393h1393l27,21c34,27,37,86,5,115c-20,18-62,19-1384,24l-1362,5l189,535c131,370,197,546,216,570
		c16,19,52,47,82,63l54,27h1186h1186L3790,3573z M502,2485c9-38,18-73,18-77c0-5-65-8-145-8H230v80v81l127-3l127-3L502,2485z
		 M4870,2480v-80h-145c-80,0-145,3-145,6c0,7,29,123,35,142c3,9,38,12,130,12h125V2480z M3023,1586c49-18,104-61,128-100
		c10-17,19-34,19-38c0-5-279-8-620-8s-620,3-620,6c0,12,24,51,49,77c27,30,68,55,111,68c14,4,221,7,460,8
		C2889,1599,2993,1596,3023,1586z M3190,1200v-80h-640h-640v80v80h640h640V1200z M3190,880v-80h-640h-640v80v80h640h640V880z
		 M4681,601c-11-21-34-50-52-65c-71-60,78-56-2080-56H570l-45,21c-47,22-109,85-118,120c-5,19,23,19,2144,19h2149L4681,601z
		 M1028,238l-3-83l-237-3l-238-2v85v85h240h241L1028,238z M4550,235v-85l-237,2l-238,3l-3,83l-3,82h241h240V235z"/>
	<path class="st0" d="M1341,3502c-19-9-43-29-53-43c-28-37-318-864-318-904c0-24,7-39,26-54l27-21h1527h1527l27,21
		c19,15,26,30,26,54c0,40-290,867-317,904c-11,14-35,34-54,43c-32,17-110,18-1209,18S1373,3519,1341,3502z M3811,3003l127-358
		l-694-3c-382-1-1006-1-1388,0l-694,3l127,358l126,357h1135h1135L3811,3003z"/>
	<path class="st0" d="M816,1819c-35-27-36-86-3-117c23-21,30-22,293-22c222,0,273,3,291,15c44,31,37,111-13,134c-17,7-113,11-283,11
		C855,1840,841,1839,816,1819z"/>
	<path class="st0" d="M3717,1833c-26-7-49-59-42-94c13-57,23-59,320-59c271,0,272,0,293,23c32,34,30,89-4,116c-26,20-38,21-288,20
		C3853,1838,3727,1836,3717,1833z"/>
	<path class="st0" d="M973,1586c-145-28-272-107-317-198c-52-103-29-215,59-297c193-178,604-176,789,4c59,57,80,107,81,185
		c0,53-5,74-27,111c-51,87-145,151-271,185C1208,1597,1056,1602,973,1586z M1214,1425c111-23,197-77,211-132c14-58-81-134-204-163
		c-77-18-221-8-296,20c-73,28-135,85-135,125c0,61,85,124,203,150C1075,1443,1130,1443,1214,1425z"/>
	<path class="st0" d="M3910,1594c-196-34-303-93-368-203c-22-37-27-58-27-111c1-79,22-128,83-187c97-95,244-139,431-130
		c162,8,260,42,350,123c63,56,91,116,91,192c0,136-112,248-296,297C4114,1591,3956,1602,3910,1594z M4103,1425
		c122-26,207-88,207-151c0-38-64-97-137-124c-73-28-218-38-294-20c-122,28-220,107-204,162c17,56,102,110,209,133
		C3965,1443,4021,1443,4103,1425z"/>
</g>
</svg>
