<svg xmlns="http://www.w3.org/2000/svg" width="28.924" height="29.21" viewBox="0 0 28.924 29.21">
  <defs>
    <style>
      .cls-1 {
        fill: #003e72;
      }
    </style>
  </defs>
  <g id="handshake" transform="translate(-2.35)">
    <g id="Group_179" data-name="Group 179" transform="translate(2.35 8.419)">
      <g id="Group_178" data-name="Group 178" transform="translate(0)">
        <path id="Path_132" data-name="Path 132" class="cls-1" d="M30.586,143.212l-2.577,2.577-4.18-4.18,2.577-2.577-.688-.688L22.8,141.265l-2.292,2.292H13.119l-2.292-2.292-2.921-2.921-.688.688L9.8,141.609l-4.18,4.18-2.577-2.577-.688.688,2.921,2.921,2.434,2.434,2.58,2.567-.389.389a1.5,1.5,0,0,0-.012,2.127l.012.012a1.516,1.516,0,0,0,1.016.438,1.493,1.493,0,0,0,.445,1.009,1.518,1.518,0,0,0,1.016.438,1.493,1.493,0,0,0,.448,1.01,1.518,1.518,0,0,0,1.016.438,1.493,1.493,0,0,0,.445,1.009,1.527,1.527,0,0,0,2.146,0l.386-.386.386.383a1.52,1.52,0,0,0,2.592-1.014,1.518,1.518,0,0,0,1.016-.441,1.5,1.5,0,0,0,.444-1.013,1.518,1.518,0,0,0,1.016-.442,1.5,1.5,0,0,0,.444-1.013,1.514,1.514,0,0,0,1.016-2.586l-.369-.368,2.56-2.56,2.434-2.434,2.921-2.921ZM6.3,146.478l4.18-4.18,1.746,1.746-4.18,4.18Zm5.056,7.181a.551.551,0,0,1-.779,0,.531.531,0,0,1-.005-.751l.005-.005.4-.392.773.763Zm1.454,1.449a.552.552,0,0,1-.773,0,.532.532,0,0,1,0-.753l0,0,.394-.389.768.763Zm1.467,1.447a.552.552,0,0,1-.779,0,.531.531,0,0,1-.005-.751l.005-.005.392-.389.768.763ZM15.741,158a.552.552,0,0,1-.775,0,.531.531,0,0,1-.005-.751l.005-.005.389-.387.768.763Zm7.3-4.367,0,0h0a.549.549,0,0,1-.773,0l-.73-.727a.487.487,0,1,0-.687.69l.73.727a.539.539,0,0,1,0,.762l0,0a.549.549,0,0,1-.773,0l-.73-.727a.487.487,0,0,0-.687.69l.73.727a.539.539,0,0,1,0,.762l0,0a.549.549,0,0,1-.773,0l-.73-.727a.487.487,0,0,0-.687.69l.73.727a.539.539,0,0,1,0,.762l0,0a.55.55,0,0,1-.774,0l-9.15-9.091,4.381-4.381h1.563l-3.573,3.657a.487.487,0,0,0,0,.684,3.423,3.423,0,0,0,2.27,1.011,3.043,3.043,0,0,0,2.313-.887.471.471,0,0,0,.058-.07l.176-.259a4.417,4.417,0,0,0,3.726.836l3.384,3.371A.539.539,0,0,1,23.045,153.636Zm-.372-2.506L20.63,149.1l.369-.281a.427.427,0,0,0,.049-.044l.487-.487-.688-.688-.463.463-.421.317a3.384,3.384,0,0,1-3.783-.779.487.487,0,0,0-.746.07l-.46.673a2.1,2.1,0,0,1-1.547.573,2.455,2.455,0,0,1-1.251-.42l3.869-3.962h4.462l4.381,4.381Zm2.9-2.906-4.18-4.18,1.746-1.746,4.18,4.18Z" transform="translate(-2.35 -138.344)"/>
      </g>
    </g>
    <g id="Group_181" data-name="Group 181" transform="translate(7.563 16.065)">
      <g id="Group_180" data-name="Group 180">
        <rect id="Rectangle_1119" data-name="Rectangle 1119" class="cls-1" width="0.974" height="0.974"/>
      </g>
    </g>
    <g id="Group_183" data-name="Group 183" transform="translate(25.089 16.065)">
      <g id="Group_182" data-name="Group 182">
        <rect id="Rectangle_1120" data-name="Rectangle 1120" class="cls-1" width="0.974" height="0.974"/>
      </g>
    </g>
    <g id="Group_185" data-name="Group 185" transform="translate(11.944)">
      <g id="Group_184" data-name="Group 184">
        <path id="Path_133" data-name="Path 133" class="cls-1" d="M165.848,8.763a3.9,3.9,0,0,0,3.895-3.895.487.487,0,0,0-.487-.487h-.974a3.883,3.883,0,0,0-2.921,1.327V3.895h.487A3.412,3.412,0,0,0,169.256.487.487.487,0,0,0,168.769,0H167.8a3.408,3.408,0,0,0-2.921,1.662A3.408,3.408,0,0,0,161.953,0h-.974a.487.487,0,0,0-.487.487A3.412,3.412,0,0,0,163.9,3.895h.487V5.709a3.883,3.883,0,0,0-2.921-1.327h-.974a.487.487,0,0,0-.487.487A3.9,3.9,0,0,0,163.9,8.763h.487v.772l-3.123,3.123h1.377l2.233-2.233,2.233,2.233h1.377l-3.123-3.123V8.763Zm2.434-3.408h.446a2.926,2.926,0,0,1-2.881,2.434H165.4A2.926,2.926,0,0,1,168.282,5.355ZM167.8.974h.438a2.438,2.438,0,0,1-2.385,1.947h-.438A2.438,2.438,0,0,1,167.8.974ZM163.9,2.921A2.438,2.438,0,0,1,161.515.974h.438a2.438,2.438,0,0,1,2.385,1.947Zm0,4.868a2.926,2.926,0,0,1-2.881-2.434h.446a2.926,2.926,0,0,1,2.881,2.434Z" transform="translate(-160.006)"/>
      </g>
    </g>
  </g>
</svg>
