<?xml version="1.0" encoding="UTF-8"?>
<!DOCTYPE svg PUBLIC "-//W3C//DTD SVG 1.1//EN" "http://www.w3.org/Graphics/SVG/1.1/DTD/svg11.dtd">
<!-- Creator: CorelDRAW 2018 (64-Bit) -->
<svg xmlns="http://www.w3.org/2000/svg" xml:space="preserve" width="0.31in" height="0.31in" version="1.1" style="shape-rendering:geometricPrecision; text-rendering:geometricPrecision; image-rendering:optimizeQuality; fill-rule:evenodd; clip-rule:evenodd"
viewBox="0 0 310 310"
 xmlns:xlink="http://www.w3.org/1999/xlink">
 <defs>
  <style type="text/css">
   <![CDATA[
    .fil0 {fill:#275998}
   ]]>
  </style>
 </defs>
 <g id="Layer_x0020_1">
  <metadata id="CorelCorpID_0Corel-Layer"/>
  <path class="fil0" d="M47.23 294.86c0,-2.37 13.65,-9.45 16.23,-11.01 1.69,-1.02 4.03,-2.91 6.17,-2.91l170.74 0c2.6,0 14.47,7.91 17.53,9.72 5.73,3.41 4.87,1.55 4.87,10.87l-215.54 0 0 -6.66zm19.96 -294.86l19.39 0c2.83,0 4.24,1.41 4.24,4.24l0 19.98 128.36 0 0 -19.98c0,-2.83 1.41,-4.24 4.24,-4.24l19.39 0c6.69,0.89 4.83,5.17 4.83,22.4l0 76.89 48.19 29.91c5.89,3.87 14.17,7.01 14.17,11.26l0 27.25c0,1.51 -1.81,3.09 -3.25,3.39 -2.94,0.62 -8.94,-4.21 -12.14,-6.17l-31.42 -19.44c-2.78,-1.65 -5.13,-3.2 -7.8,-4.92 -1.7,-1.09 -6.04,-3.9 -7.75,-4.35l0 138.04c4.56,2.41 9.03,5.35 13.66,8.13 6.4,3.85 10.56,4.85 10.56,10.64 0,4.97 1.32,16.95 -3.63,16.95l-226.45 0c-2.48,0 -3.63,-3.33 -3.63,-6.06 0,-10.67 -1.47,-14.28 4.11,-17.69l20.11 -11.98 0 -138.04c-1.76,0.47 -6.33,3.42 -8.11,4.59 -2.73,1.8 -5.02,3.24 -7.82,4.9 -2.78,1.64 -5.14,3.2 -7.8,4.92l-31.39 19.49c-5.08,2.77 -7.24,-1.13 -7.24,-2.42l0 -27.25c0,-3.85 4.13,-4.98 6.66,-6.66l55.7 -34.51 0 -77.5c0,-16.75 -1.83,-20.92 4.83,-21.8zm160.47 123.52c1.8,0.95 10.9,5.55 10.9,7.87l0 140.47 -10.9 0 0 -148.34zm-104.75 136.83l64.18 0 0 11.5 -64.18 0 0 -11.5zm-51.46 -128.96c0,-2.01 3.37,-3.31 4.88,-4.2 2.17,-1.28 3.82,-2.5 6.02,-3.67l0 148.34 -10.9 0 0 -140.47zm51.46 105.96l64.18 0 0 13.93 -64.18 0 0 -13.93zm0 -21.19l64.18 0 0 12.11 -64.18 0 0 -12.11zm36.33 -93.24l59.94 0 0 148.94 -23.01 0 0 -59.33c0,-2.21 -1.67,-4.84 -3.63,-4.84l-33.3 0 0 -84.77zm-45.41 89.61l0 59.33 -23.01 0 0 -148.94 59.94 0 0 84.77 -33.3 0c-1.96,0 -3.63,2.63 -3.63,4.84zm-105.35 -53.89l0 -15.74c6.4,-3.39 16.56,-10.28 23.65,-14.5l33.61 -20.88c3.22,-1.97 6.37,-3.83 9.34,-5.8 1.61,-1.07 3.24,-1.95 4.84,-3.03 1.4,-0.94 3.17,-2.42 5.45,-2.42l139.26 0c3.04,0 16.88,9.57 19.63,11.25l28.39 17.63c8.09,4.8 21.87,14.04 28.87,17.75l0 15.74 -36.81 -22.52c-5.05,-3.26 -34.19,-22.28 -37.66,-22.28l-144.1 0c-4.03,0 -54.71,33.06 -64.98,39.16 -1.8,1.07 -2.65,1.74 -4.46,2.81 -1.78,1.06 -3.17,2.34 -5.04,2.83zm135.02 -76.89c0,-8.57 6.92,-6.66 17.56,-6.66 6.5,0 5.45,7.65 5.45,12.71l-23.01 0 0 -6.05zm15.74 -29.06l59.94 0 0 35.11 -44.2 0c0,-6.87 1.01,-13.56 -4.81,-18.19 -2.8,-2.22 -5.89,-3.6 -10.93,-3.6l0 -13.32zm-24.22 26.64l0 8.48 -44.2 0 0 -35.11 59.94 0 0 13.32c-4.46,0 -8.48,1.4 -11.02,3.51 -2.08,1.73 -4.72,6.11 -4.72,9.81zm24.22 -46.62l64.18 0c2.83,0 4.24,-1.41 4.24,-4.24l0 -19.98 10.9 0 0 84.77c-3.51,-0.94 -6.62,-5.09 -10.9,-5.45 0,-3.06 0.46,-39.52 -0.29,-41.49 -0.43,-1.12 -2.05,-2.71 -3.34,-2.71l-64.78 0 0 -10.9zm-76.9 55.09c-4.31,0.36 -6.99,4.41 -10.9,5.45l0 -84.77 10.9 0 0 19.98c0,2.83 1.41,4.24 4.24,4.24l64.18 0 0 10.9 -64.78 0c-5.43,0 -3.63,12.98 -3.63,19.98 0,8.07 0,16.15 0,24.22z"/>
 </g>
</svg>
