<?xml version="1.0" encoding="UTF-8"?>
<!DOCTYPE svg PUBLIC "-//W3C//DTD SVG 1.1//EN" "http://www.w3.org/Graphics/SVG/1.1/DTD/svg11.dtd">
<!-- Creator: CorelDRAW 2018 (64-Bit) -->
<svg xmlns="http://www.w3.org/2000/svg" xml:space="preserve" width="0.31in" height="0.31in" version="1.1" style="shape-rendering:geometricPrecision; text-rendering:geometricPrecision; image-rendering:optimizeQuality; fill-rule:evenodd; clip-rule:evenodd"
viewBox="0 0 310 310"
 xmlns:xlink="http://www.w3.org/1999/xlink">
 <defs>
  <style type="text/css">
   <![CDATA[
    .fil0 {fill:#275998}
   ]]>
  </style>
 </defs>
 <g id="Layer_x0020_1">
  <metadata id="CorelCorpID_0Corel-Layer"/>
  <g id="_1026582256">
   <path class="fil0" d="M-0 149.55c0,26.95 3.39,49.19 14.12,70.65 2.16,4.33 4.1,8.48 6.43,12.34 10.74,17.8 9.8,13.98 19.76,26.86 10.95,14.15 32.75,28.03 48.69,36.07 14.13,7.13 39.33,14.53 60.55,14.53 30.7,0 49.55,-3.59 76.29,-16.95 11,-5.5 27.03,-16.52 36.19,-25.57 1.52,-1.5 4.08,-3.37 4.68,-5.66 0.8,-3.12 -1.28,-5.7 -4.54,-5.7 -3.51,0 -5.58,3.71 -7.72,5.59 -25.12,22.12 -51.54,34.83 -86.21,38.52 -2.15,0.23 -4.34,-0.06 -6.48,0.18 -8.65,0.96 -5.37,0.56 -12.83,-0.06 -2.37,-0.19 -4.78,0.14 -7.15,-0.12 -39.19,-4.2 -70.94,-20.72 -96.22,-49.09l-9.39 -11.8c-15.01,-20.05 -23.67,-45.76 -26.38,-71.1l-0.69 -13.23c0,-8.02 1.6,-22.19 3.17,-29.52 3.74,-17.44 9.76,-32.03 18.59,-46.8l13.36 -19.34c0,-6.17 -4.59,-8.45 -9.51,-2.24 -5.41,6.82 -10.69,13.81 -14.71,21.62 -1.08,2.1 -2.04,3.44 -3.24,5.85 -1.16,2.34 -1.92,3.74 -2.91,6.17l-5.28 12.89c-4.45,11.87 -8.56,32.75 -8.56,45.93z"/>
   <path class="fil0" d="M47.83 44.8c0,3.88 1.8,4.85 5.45,4.85l14.96 -11.68c29.39,-22.06 67.54,-32.47 105.35,-27.5 28.95,3.8 52.8,14.72 75.35,33.03 19.64,15.95 36.31,41.07 44.19,64.8 3.56,10.73 5.84,21.73 7.09,33.47 0.23,2.17 -0.06,4.37 0.12,6.54 0.48,6 0.5,15.51 -0.28,20.98 -3.85,26.87 -9.31,45.28 -24.69,67.94 -0.81,1.2 -11.48,12.67 -2.07,14.41 2.59,0.48 4.11,-1.22 5.24,-2.76 2.44,-3.32 4.55,-6.29 7,-9.95 1.22,-1.83 2.25,-3.52 3.24,-5.24 1.05,-1.83 2.13,-3.62 3.06,-5.41 1.94,-3.72 4.06,-7.69 5.7,-11.85l4.66 -12.3c4.7,-14.05 7.31,-29.3 7.8,-44.66l0 -10.41c-0.67,-21.09 -5.39,-41.93 -14.33,-59.65 -4.42,-8.77 -8.21,-16.1 -13.78,-23.76 -17.61,-24.2 -34.69,-37.91 -61.3,-51.32 -17.6,-8.87 -37.25,-13.49 -57.2,-14.33l-13.3 0c-20.71,0.85 -41.32,5.67 -59.88,13.93 -14.11,6.28 -24.3,13.66 -35.82,22.91 -1.07,0.86 -1.46,1.43 -2.48,2.37 -1.86,1.72 -4.09,2.19 -4.09,5.59z"/>
   <path class="fil0" d="M156.21 204.04c-17.3,0 -31.07,-6.81 -41.01,-20.15 -15.83,-21.22 -11.48,-52.52 11.59,-69.21 28.69,-20.77 77.25,-3.67 77.25,41.53 0,25.6 -22.23,47.83 -47.83,47.83zm-59.94 -49.04c0,32 26.76,58.73 58.73,58.73 31.98,0 58.73,-26.76 58.73,-58.73 0,-31.98 -26.73,-58.73 -58.73,-58.73 -32.02,0 -58.73,26.7 -58.73,58.73z"/>
   <path class="fil0" d="M65.39 127.15l-20.43 -5.61c-7.21,-3.42 -1.92,-11.22 0.27,-16.36 6.33,-14.83 21.4,-32.93 34.33,-43.17 1.61,-1.27 2.46,-2.05 4.1,-3.17 1.78,-1.21 2.81,-2.14 4.6,-3.27 14.06,-8.83 13.7,-6.8 20.13,4.33 4.18,7.24 8.26,11.76 4.19,16.35 -1,1.13 -2.36,1.89 -3.87,2.8 -29.2,17.59 -35.3,41.39 -38.98,45.78 -0.74,0.89 -2.98,2.3 -4.36,2.3zm-33.3 -13.32c0,13.68 6.25,15.78 17.35,18.98 10.19,2.94 16.91,6.2 25.06,0.42 4.17,-2.96 7.73,-12.8 12.34,-20.35l7.15 -9.19c6.76,-7.59 11.55,-11.75 20.8,-17.35 1.32,-0.8 2.13,-1.35 3.2,-2.25l0.95 -0.87c3.91,-3.91 4.58,-7.11 4.58,-12.37 0,-4.62 -6.12,-14.56 -8.59,-18.65 -1.93,-3.2 -2.61,-5.39 -5.5,-7.82 -10.81,-9.11 -23.13,0.61 -33.15,8.31 -6.71,5.15 -12.4,10.65 -18.32,16.8 -8.62,8.95 -25.87,35.81 -25.87,44.36z"/>
   <path class="fil0" d="M211.31 259.74c-3.8,0 -4.55,-0.5 -6.48,-3.8 -1.8,-3.06 -9.26,-16.02 -9.26,-17.99 0,-5.2 7.85,-7.81 13.67,-12.37 2.56,-2 4.59,-4.02 6.92,-5.8 3.72,-2.85 4.04,-4.02 6.52,-6.8 14.91,-16.74 15.39,-30.13 21.94,-30.13l20.43 5.61c1.77,0.84 3.79,3.17 3.79,5.29 0,8.39 -16.49,31.9 -22.58,39.17 -3.76,4.48 -11.13,11.38 -15.81,15.07 -3.09,2.43 -15.25,11.75 -19.13,11.75zm-24.82 -23c0,7.08 0.75,6.54 3.64,12.11 2.07,3.98 7.28,14.24 10.44,16.8 11.24,9.09 22.94,-0.65 33.15,-8.32 12.97,-9.74 24.86,-22.99 33.27,-36.96 6.78,-11.27 19.76,-32.27 1.85,-40.55l-16.75 -5.05c-6.67,-1.96 -11.64,-1.82 -16.67,1.93 -4.98,3.71 -5.13,8.44 -8.24,13.55 -9.35,15.31 -15.46,23.4 -31.96,33.43 -4.65,2.83 -8.73,6.91 -8.73,13.07z"/>
   <path class="fil0" d="M195.57 72.05c0,-1.98 7.46,-14.93 9.26,-17.99 1.94,-3.3 2.69,-3.8 6.48,-3.8 6.85,0 29.35,20.14 34.94,26.82 4.87,5.82 8.9,11.33 13.02,17.86 1.98,3.14 9.56,17.45 9.56,21.31 0,5.17 -6.92,6.33 -9.82,7.14 -21.22,5.93 -15.42,6.43 -25.1,-10.96 -13.41,-24.09 -32.28,-31.94 -36.2,-35.84 -0.91,-0.9 -2.13,-3.09 -2.13,-4.53zm-9.08 -1.21c0,7.54 2.45,11.7 8.73,15.49 4.77,2.89 8.69,5.53 12.61,9.18 4.11,3.83 6.97,6.04 10.76,11.04 3.2,4.22 5.89,8.19 8.66,13.13 3.51,6.25 6.22,21.07 24.85,15.55 9.41,-2.78 25.81,-4.92 25.81,-17.78 0,-9.43 -5.5,-18.73 -10.7,-27.44 -10.32,-17.29 -26.49,-34.08 -43.53,-44.27 -6.24,-3.73 -13.57,-8.64 -22.43,-1.93 -3.81,2.89 -8.59,12.34 -10.93,16.93 -1.54,3.03 -3.83,5.83 -3.83,10.09z"/>
   <path class="fil0" d="M41.17 193.75c0,-5.17 6.92,-6.33 9.82,-7.14 21.06,-5.89 15.41,-6.45 25.1,10.96 1.7,3.06 3.21,5.08 5.04,7.68 2.21,3.14 9.33,11.87 12.02,14.01 6.06,4.82 7.7,7 15.2,11.44 9.75,5.78 6.56,8.65 -3.17,25.23 -5.11,8.7 -13.61,0.55 -21.14,-4.55 -12.83,-8.69 -25.31,-23.2 -33.22,-36.41 -2.02,-3.37 -9.65,-16.85 -9.65,-21.22zm-9.08 -1.21c0,13.93 14.13,33.93 23.43,44.99 7.19,8.56 32.08,31.9 43.18,31.9 4.08,0 7.59,-1.39 10.06,-3.26 4.04,-3.06 14.76,-21.92 14.76,-27.01 0,-5.09 -0.44,-7.77 -3.99,-11.75 -3.42,-3.83 -10.14,-6.21 -17.35,-12.92l-8.19 -8.17c-1.11,-1.25 -1.57,-1.55 -2.57,-2.87 -5.46,-7.2 -4.31,-6.21 -8.59,-13.21 -3.83,-6.28 -5.92,-21.05 -24.92,-15.48 -3.09,0.91 -5.36,1.53 -8.47,2.43 -6.32,1.83 -17.35,4.63 -17.35,15.35z"/>
   <path class="fil0" d="M135.02 156.81c0,-8.52 3.05,-16.09 11.08,-19.8 20.8,-9.6 38.83,16.21 22.98,32.06 -2.09,2.09 -2.26,2.54 -5.19,3.9 -15.6,7.2 -28.88,-5.84 -28.88,-16.17zm-9.69 -1.81c0,15.85 13.82,29.67 29.67,29.67 15.95,0 29.67,-13.77 29.67,-29.67 0,-15.9 -13.72,-29.67 -29.67,-29.67 -15.96,0 -29.67,13.69 -29.67,29.67z"/>
  </g>
 </g>
</svg>
